<svg xmlns="http://www.w3.org/2000/svg" width="62.22" height="42" viewBox="0 0 62.22 42"><path d="M.072,42.348V7.788q0-.06.18-1.14l20.34,17.4L.312,43.548a5.085,5.085,0,0,1-.24-1.2Zm2.7-38.1a2.586,2.586,0,0,1,1.02-.18h54.78a3.4,3.4,0,0,1,1.08.18l-20.4,17.46-2.7,2.16-5.34,4.38-5.34-4.38-2.7-2.16Zm.06,41.64,20.46-19.62,7.92,6.42,7.92-6.42,20.46,19.62a2.881,2.881,0,0,1-1.02.18H3.792a2.717,2.717,0,0,1-.96-.18Zm39-21.84,20.28-17.4a3.581,3.581,0,0,1,.18,1.14v34.56a4.6,4.6,0,0,1-.18,1.2Z" transform="translate(-0.072 -4.068)" fill="#fff"/></svg>