<svg xmlns="http://www.w3.org/2000/svg" width="182" height="182" viewBox="0 0 182 182"><g transform="translate(-811 -1269)"><circle cx="91" cy="91" r="91" transform="translate(811 1269)" fill="#111212"/><circle cx="78.759" cy="78.759" r="78.759" transform="translate(823.284 1281.284)" fill="#222323"/><path d="M361.28,284.545v-.572a.939.939,0,0,0-.023-.252c0-.069-.023-.137-.023-.206s-.023-.137-.023-.206-.023-.16-.023-.229c0-.046-.023-.091-.023-.137a10.85,10.85,0,0,0-.343-1.3h0a8.813,8.813,0,0,0-16.653,0h0a9.145,9.145,0,0,0-.343,1.3c0,.046-.023.091-.023.137a.778.778,0,0,0-.023.229c0,.069-.023.137-.023.206s-.023.137-.023.206c0,.091-.023.16-.023.252v.572h0a8.708,8.708,0,0,0,2.2,5.81l-11.735,16.081a9.889,9.889,0,0,1-6.016,3.866,1.147,1.147,0,0,1-.275.046c-.091.023-.206.023-.3.046s-.16.023-.252.046c-.16.023-.3.023-.457.046h-.114c-.183,0-.389.023-.572.023A12.728,12.728,0,0,1,313.677,300.1c-.023-.069-.023-.137-.046-.206l-4.758-28.365a8.768,8.768,0,0,0,2.539-6.2h0v-.572a.939.939,0,0,0-.023-.252c0-.069-.023-.137-.023-.206s-.023-.137-.023-.206-.023-.16-.023-.229c0-.046-.023-.092-.023-.137a10.85,10.85,0,0,0-.343-1.3h0a8.813,8.813,0,0,0-16.653,0h0q-.206.652-.343,1.3c0,.046-.023.091-.023.137a.778.778,0,0,0-.023.229c0,.069-.023.137-.023.206s-.023.137-.023.206c0,.091-.023.16-.023.252v.572h0a8.747,8.747,0,0,0,2.562,6.2l-4.758,28.365c0,.046-.023.069-.023.114,0,.023-.023.069-.023.091a12.534,12.534,0,0,1-2.493,5.513h0l-.343.412h0c-.114.137-.229.275-.343.389l-.023.023a2.765,2.765,0,0,1-.366.366l-.023.023c-.114.114-.252.229-.366.343-.023,0-.023.023-.046.023-.114.114-.252.206-.366.32l-.046.046c-.114.092-.252.206-.366.3-.023.023-.046.023-.069.046-.114.091-.252.183-.366.275-.023.023-.046.046-.069.046-.114.091-.252.16-.366.252-.023.023-.069.046-.091.069-.114.069-.252.16-.366.229-.046.023-.069.046-.114.069-.114.069-.229.137-.366.206l-.137.069c-.114.069-.229.114-.343.183a1.115,1.115,0,0,1-.16.069c-.114.046-.229.114-.343.16-.046.023-.114.046-.16.069l-.343.137c-.069.023-.114.046-.183.069-.114.046-.229.069-.343.114l-.206.069c-.114.023-.206.069-.32.091-.069.023-.16.046-.229.069-.114.023-.206.046-.32.069-.091.023-.16.023-.252.046s-.206.046-.3.069-.183.023-.274.046-.183.023-.3.046a1.3,1.3,0,0,1-.3.023c-.091,0-.183.023-.275.023-.114,0-.229.023-.32.023s-.16.023-.252.023h-.595a3.88,3.88,0,0,1-.526-.023,3.1,3.1,0,0,1-.457-.046h-.091a8.812,8.812,0,0,1-1.075-.183h0a9.83,9.83,0,0,1-5.81-3.82l-11.735-16.081a8.752,8.752,0,0,0,2.2-5.81h0v-.572a.938.938,0,0,0-.023-.252c0-.069-.023-.137-.023-.206s-.023-.137-.023-.206-.023-.16-.023-.229c0-.046-.023-.091-.023-.137a10.844,10.844,0,0,0-.343-1.3h0a8.813,8.813,0,0,0-16.653,0h0q-.206.652-.343,1.3c0,.046-.023.091-.023.137a.778.778,0,0,0-.023.229c0,.069-.023.137-.023.206s-.023.137-.023.206c0,.091-.023.16-.023.252v.572h0a8.725,8.725,0,0,0,.526,3.019,10.524,10.524,0,0,0,.732,1.533,4.829,4.829,0,0,0,.48.709,3.271,3.271,0,0,1,.252.343,8.861,8.861,0,0,0,5.17,3.065l8.349,29.555h-.549a4.961,4.961,0,0,0-4.3,2.493h0a4.035,4.035,0,0,0-.389.846v.023c-.023.092-.069.183-.092.275v.023a5.444,5.444,0,0,0-.114.595v.069c0,.069-.023.16-.023.229v.389h0a4.959,4.959,0,0,0,4.964,4.964h1.121v16.1h-1.121a4.95,4.95,0,0,0-4.529,2.928h0a.957.957,0,0,0-.091.229h0c-.023.069-.069.16-.092.229v.023c-.023.069-.046.137-.069.229v.023a.668.668,0,0,0-.046.206v.046c-.023.069-.023.137-.046.206v.046c0,.069-.023.137-.023.206v.069c0,.069-.023.137-.023.206v.343h0a4.959,4.959,0,0,0,4.964,4.964h87.5a4.959,4.959,0,0,0,4.964-4.964h0v-.343a.634.634,0,0,0-.023-.206v-.069c0-.069-.023-.137-.023-.206V352.9c-.023-.069-.023-.137-.046-.206v-.046c-.023-.069-.023-.137-.046-.206v-.023c-.023-.069-.046-.16-.069-.229v-.023a.955.955,0,0,0-.091-.229h0c-.023-.069-.069-.16-.092-.229h0a4.987,4.987,0,0,0-4.529-2.928h-1.121v-16.1h1.121a4.959,4.959,0,0,0,4.964-4.964h0v-.389c0-.069-.023-.16-.023-.229v-.069a4.57,4.57,0,0,0-.114-.595v-.046a1.291,1.291,0,0,0-.091-.275v-.023a4.777,4.777,0,0,0-.389-.846h0a4.989,4.989,0,0,0-4.3-2.493h-.549l8.006-29.532a8.679,8.679,0,0,0,5.17-3.065,3.275,3.275,0,0,0,.252-.343c.16-.229.32-.457.48-.709a7.846,7.846,0,0,0,.732-1.533,8.144,8.144,0,0,0,.549-3.019Z" transform="translate(599.482 1047.842)" fill="#141414"/><path d="M379.538,650.128H292.064a4.959,4.959,0,0,1-4.964-4.964h0a4.959,4.959,0,0,1,4.964-4.964h87.5a4.959,4.959,0,0,1,4.964,4.964h0A4.979,4.979,0,0,1,379.538,650.128Z" transform="translate(566.242 751.913)" fill="#f6de25"/><path d="M379.538,655.728H292.064a4.95,4.95,0,0,1-4.529-2.928,5.1,5.1,0,0,0-.435,2.059h0a4.959,4.959,0,0,0,4.964,4.964h87.5a4.959,4.959,0,0,0,4.964-4.964h0a5.1,5.1,0,0,0-.435-2.059A5.046,5.046,0,0,1,379.538,655.728Z" transform="translate(566.242 742.196)" fill="#e7ad27"/><rect width="85.255" height="16.104" transform="translate(859.404 1375.986)" fill="#c21e24"/><rect width="75.19" height="16.104" transform="translate(864.459 1375.986)" fill="#e5232b"/><rect width="75.19" height="2.288" transform="translate(864.459 1375.986)" fill="#c21e24"/><path d="M359.737,293.689l-12.444,17.065a9.852,9.852,0,0,1-7.983,4.072h0a12.724,12.724,0,0,1-12.558-10.614L321.7,273.948A5.95,5.95,0,0,0,315.748,268h0a5.95,5.95,0,0,0-5.947,5.948l-5.078,30.264a12.724,12.724,0,0,1-12.558,10.614h0a9.852,9.852,0,0,1-7.983-4.072l-12.444-17.065a11.474,11.474,0,0,0-10.637-7.16h0l11.438,40.535h86.376l11.438-40.535h0A11.49,11.49,0,0,0,359.737,293.689Z" transform="translate(586.294 1038.973)" fill="#e5232b"/><circle cx="6.245" cy="6.245" r="6.245" transform="translate(895.798 1352.265)" fill="#c21e24"/><circle cx="6.245" cy="6.245" r="6.245" transform="translate(895.798 1349.978)" fill="#fff"/><path d="M478.945,478.218a6.256,6.256,0,0,1-5.879-4.117,6.457,6.457,0,0,0-.366,2.1,6.245,6.245,0,0,0,12.49,0,6.459,6.459,0,0,0-.366-2.1A6.256,6.256,0,0,1,478.945,478.218Z" transform="translate(423.098 880.018)" fill="#d1d3d4"/><circle cx="3.935" cy="3.935" r="3.935" transform="translate(898.108 1380.104)" fill="#ef5a9d"/><path d="M486.734,601.608A3.948,3.948,0,0,1,483.029,599a3.68,3.68,0,0,0-.229,1.327,3.934,3.934,0,1,0,7.869,0A4.251,4.251,0,0,0,490.44,599,3.916,3.916,0,0,1,486.734,601.608Z" transform="translate(415.308 783.689)" fill="#a72973"/><circle cx="3.935" cy="3.935" r="3.935" transform="translate(882.69 1380.104)" fill="#ef5a9d"/><path d="M419.334,601.608A3.948,3.948,0,0,1,415.629,599a3.679,3.679,0,0,0-.229,1.327,3.935,3.935,0,1,0,7.869,0A4.252,4.252,0,0,0,423.04,599,3.917,3.917,0,0,1,419.334,601.608Z" transform="translate(467.29 783.689)" fill="#a72973"/><circle cx="3.935" cy="3.935" r="3.935" transform="translate(913.526 1380.104)" fill="#ef5a9d"/><path d="M554.135,601.608A3.948,3.948,0,0,1,550.429,599a3.681,3.681,0,0,0-.229,1.327,3.935,3.935,0,0,0,7.869,0A4.25,4.25,0,0,0,557.84,599,3.917,3.917,0,0,1,554.135,601.608Z" transform="translate(363.326 783.689)" fill="#a72973"/><circle cx="3.935" cy="3.935" r="3.935" transform="translate(928.944 1380.104)" fill="#ef5a9d"/><path d="M621.534,601.608A3.948,3.948,0,0,1,617.829,599a3.679,3.679,0,0,0-.229,1.327,3.935,3.935,0,0,0,7.869,0A4.25,4.25,0,0,0,625.24,599,3.916,3.916,0,0,1,621.534,601.608Z" transform="translate(311.344 783.689)" fill="#a72973"/><circle cx="3.935" cy="3.935" r="3.935" transform="translate(867.273 1380.104)" fill="#ef5a9d"/><path d="M351.935,601.608A3.948,3.948,0,0,1,348.229,599a3.68,3.68,0,0,0-.229,1.327,3.934,3.934,0,1,0,7.869,0A4.25,4.25,0,0,0,355.64,599,3.916,3.916,0,0,1,351.935,601.608Z" transform="translate(519.273 783.689)" fill="#a72973"/><path d="M664.3,389.535h5.6L681.342,349h0a11.445,11.445,0,0,0-4.9,1.1Z" transform="translate(275.326 976.501)" fill="#c21e24"/><path d="M278.242,389.535h-5.6L261.2,349h0a11.445,11.445,0,0,1,4.9,1.1Z" transform="translate(586.217 976.501)" fill="#c21e24"/><path d="M687.055,356.16l-1.555,2.127a8.814,8.814,0,0,0,7.457,4.117c.32,0,.641-.023.961-.046L697.692,349h0A11.5,11.5,0,0,0,687.055,356.16Z" transform="translate(258.976 976.501)" fill="#c21e24"/><circle cx="8.807" cy="8.807" r="8.807" transform="translate(943.149 1319.005)" fill="#f6de25"/><path d="M271.837,356.16A11.474,11.474,0,0,0,261.2,349h0l3.774,13.359c.32.023.618.046.961.046a8.814,8.814,0,0,0,7.457-4.117Z" transform="translate(586.217 976.501)" fill="#c21e24"/><circle cx="8.807" cy="8.807" r="8.807" transform="translate(843.322 1319.005)" fill="#f6de25"/><path d="M252.107,352.325a8.835,8.835,0,0,1-8.326-5.925,8.7,8.7,0,0,0-.48,2.905,8.807,8.807,0,1,0,17.614,0,9.43,9.43,0,0,0-.48-2.905A8.791,8.791,0,0,1,252.107,352.325Z" transform="translate(600.022 978.507)" fill="#e7ad27"/><path d="M688.507,352.325a8.835,8.835,0,0,1-8.326-5.925,8.7,8.7,0,0,0-.48,2.905,8.807,8.807,0,1,0,17.614,0,9.433,9.433,0,0,0-.48-2.905A8.835,8.835,0,0,1,688.507,352.325Z" transform="translate(263.449 978.507)" fill="#e7ad27"/><path d="M408.8,301.946c1.807-7.8,2.173-23.378,3.042-33.146h0c-.16.046-.3.092-.435.137a.08.08,0,0,0-.046.023c-.137.046-.274.114-.412.16-.023,0-.023.023-.046.023a5.423,5.423,0,0,0-.8.435c-.023,0-.023.023-.046.023-.114.091-.252.16-.366.252l-.046.046a3.964,3.964,0,0,0-.343.3h0a4.23,4.23,0,0,0-.32.32c0,.023-.023.023-.023.046-.091.114-.183.206-.275.32-.023.023-.023.046-.046.046a3.281,3.281,0,0,0-.252.343l-.023.023c-.069.114-.16.229-.229.366,0,.023-.023.023-.023.046a2.975,2.975,0,0,0-.183.389c0,.023-.023.046-.023.069-.069.137-.114.275-.16.389,0,.023-.023.046-.023.069l-.137.412v.023a2.933,2.933,0,0,0-.091.435.172.172,0,0,1-.023.091,2.809,2.809,0,0,0-.046.435v.069a3.22,3.22,0,0,0-.023.457l-5.078,30.264c-.023.069-.023.137-.046.206a12.728,12.728,0,0,1-12.513,10.408h0a9.894,9.894,0,0,1-2.173-.252h0C387.577,315.191,404.321,321.39,408.8,301.946Z" transform="translate(488.731 1038.355)" fill="#c21e24"/><path d="M509.442,301.946c-1.807-7.8-2.173-23.378-3.042-33.146h0c.16.046.3.092.435.137a.08.08,0,0,1,.046.023c.137.046.274.114.412.16.023,0,.023.023.046.023a5.421,5.421,0,0,1,.8.435c.023,0,.023.023.046.023.114.091.252.16.366.252l.046.046a3.983,3.983,0,0,1,.343.3h0a4.23,4.23,0,0,1,.32.32c0,.023.023.023.023.046.091.114.183.206.274.32.023.023.023.046.046.046a3.281,3.281,0,0,1,.252.343l.023.023c.069.114.16.229.229.366,0,.023.023.023.023.046a2.982,2.982,0,0,1,.183.389c0,.023.023.046.023.069.069.137.114.275.16.389,0,.023.023.046.023.069l.137.412v.023a2.933,2.933,0,0,1,.091.435.173.173,0,0,0,.023.091,2.8,2.8,0,0,1,.046.435v.069a3.22,3.22,0,0,1,.023.457l5.078,30.264c.023.069.023.137.046.206a12.728,12.728,0,0,0,12.513,10.408h0a9.9,9.9,0,0,0,2.173-.252h0C530.693,315.191,513.949,321.39,509.442,301.946Z" transform="translate(397.107 1038.355)" fill="#c21e24"/><path d="M477.788,280.741a8.85,8.85,0,0,0,6.588-2.951l-.641-3.843a5.947,5.947,0,1,0-11.895,0l-.641,3.843A8.85,8.85,0,0,0,477.788,280.741Z" transform="translate(424.255 1038.973)" fill="#c21e24"/><circle cx="8.807" cy="8.807" r="8.807" transform="translate(893.236 1299.813)" fill="#f6de25"/><path d="M470.307,268.425a8.835,8.835,0,0,1-8.327-5.925,8.7,8.7,0,0,0-.48,2.905,8.807,8.807,0,1,0,17.614,0,9.43,9.43,0,0,0-.48-2.905A8.835,8.835,0,0,1,470.307,268.425Z" transform="translate(431.736 1043.214)" fill="#e7ad27"/><path d="M379.538,536.228H292.064a4.959,4.959,0,0,1-4.964-4.964h0a4.959,4.959,0,0,1,4.964-4.964h87.5a4.959,4.959,0,0,1,4.964,4.964h0A4.979,4.979,0,0,1,379.538,536.228Z" transform="translate(566.242 839.759)" fill="#f6de25"/><path d="M379.538,539.493H292.064a4.961,4.961,0,0,1-4.3-2.493,4.837,4.837,0,0,0-.663,2.493h0a4.959,4.959,0,0,0,4.964,4.964h87.5a4.959,4.959,0,0,0,4.964-4.964h0a5.068,5.068,0,0,0-.663-2.493A5,5,0,0,1,379.538,539.493Z" transform="translate(566.242 831.506)" fill="#e7ad27"/></g></svg>