<svg xmlns="http://www.w3.org/2000/svg" width="731.822" height="584.274" viewBox="0 0 731.822 584.274"><g transform="translate(-2872.387 -410.706)"><g transform="translate(3140.093 -2632.709) rotate(76)"><path d="M3419.179,977.372H3090.627a62.624,62.624,0,0,1-62.539-62.532V444.17a62.624,62.624,0,0,1,62.539-62.532h328.552a62.626,62.626,0,0,1,62.537,62.532V914.84a62.626,62.626,0,0,1-62.537,62.532Z" transform="translate(0.001 53.517)" fill="#e2242c"/><path d="M3167.91,400.685a15.557,15.557,0,1,1,15.557-15.557,15.835,15.835,0,0,1-15.557,15.557Zm32.944-8.236a16.039,16.039,0,0,1-.3-3.966h0a32.944,32.944,0,1,0-65.888,0v1.525a21.176,21.176,0,0,1-.3,7.626c-3.051,22.268-15.557,63.752-64.668,71.683h189.427c.61.3-46.67-3.05-58.262-76.869Z" transform="translate(85.314 0)" fill="#982226"/><path d="M3052.562,384.938l400.855,20.1L3439.08,944.373l-402.991,5.491,16.473-564.925Z" transform="translate(16.404 60.282)" fill="#ec6d49"/><path d="M3043.266,389.138l402.992,19.828-21.966,532.287-391.7-20.163,10.677-531.952Z" transform="translate(9.228 68.894)" fill="#fff"/><path d="M3052.179,470.793l43.925,2.44,2.136-39.96-43.925-2.44-2.135,39.96Zm48.806,7.626-54.3-3.05,2.745-50.331,54.3,3.05-2.745,50.331Z" transform="translate(38.137 142.502)" fill="#e2242c"/><path d="M3070.428,431.884l.162-3.047,264.7,14.151-.165,3.044-264.7-14.148Z" transform="translate(86.852 150.29)" fill="#12100b"/><path d="M3070.114,437.049l.162-3.047,264.7,14.151-.162,3.044-264.7-14.147Z" transform="translate(86.208 160.881)" fill="#12100b"/><path d="M3069.906,442.119l.164-3.047,264.7,14.151-.159,3.047-264.7-14.151Z" transform="translate(85.778 171.276)" fill="#12100b"/><path d="M3050.179,507.788l43.925,2.44,2.135-39.96-43.925-2.44-2.135,39.96Zm48.806,7.931-54.3-3.05,2.746-50.331,54.3,3.05-2.745,50.331Z" transform="translate(34.037 218.98)" fill="#e2242c"/><path d="M3068.469,469.171l.163-3.047,264.7,14.151-.164,3.047-264.7-14.151Z" transform="translate(82.837 226.742)" fill="#12100b"/><path d="M3068.156,474.326l.161-3.047,264.7,14.151-.162,3.047-264.7-14.151Z" transform="translate(82.192 237.312)" fill="#12100b"/><path d="M3067.842,479.386l.162-3.047,264.7,14.151-.164,3.044-264.7-14.148Z" transform="translate(81.549 247.687)" fill="#12100b"/><path d="M3048.179,545.088l43.925,2.44,2.136-39.96-43.926-2.44-2.135,39.96Zm48.806,7.931-54.3-3.05,2.745-50.331,54.3,3.05-2.745,50.331Z" transform="translate(29.936 295.458)" fill="#e2242c"/><path d="M3066.407,506.435l.162-3.044,264.7,14.151-.162,3.044-264.7-14.151Z" transform="translate(78.591 303.152)" fill="#12100b"/><path d="M3066.2,511.6l.166-3.047,264.693,14.151-.158,3.047L3066.2,511.6Z" transform="translate(78.163 313.743)" fill="#12100b"/><path d="M3065.884,516.671l.162-3.044,264.7,14.147-.165,3.044-264.7-14.147Z" transform="translate(77.52 324.141)" fill="#12100b"/><path d="M3046.479,577.188l43.925,2.44,2.135-39.96-43.925-2.44-2.135,39.959Zm48.806,7.931-54.3-3.05,2.746-50.331,54.3,3.05-2.745,50.331Z" transform="translate(26.45 361.274)" fill="#e2242c"/><path d="M3064.764,538.55l.159-3.047,264.7,14.148-.162,3.047-264.7-14.148Z" transform="translate(75.223 368.994)" fill="#12100b"/><path d="M3064.438,543.715l.162-3.047,264.7,14.147-.161,3.047-264.7-14.148Z" transform="translate(74.557 379.584)" fill="#12100b"/><path d="M3064.551,548.791l.159-3.047,164.793,8.81-.165,3.047-164.787-8.809Z" transform="translate(74.776 389.991)" fill="#12100b"/><path d="M3110.647,425.6a7.289,7.289,0,0,0-10.295.525l-.076.085L3073.432,455.8l-16.167-11.591a7.447,7.447,0,0,0-8.541,12.2l18.912,13.421a9.179,9.179,0,0,0,1.525,2.135,7.289,7.289,0,0,0,10.3-.528l.076-.082,31.724-35.079a7.63,7.63,0,0,0-.611-10.676Z" transform="translate(35.796 139.803)" fill="#982226"/><path d="M3108.646,463a7.291,7.291,0,0,0-10.294.525l-.076.085L3071.432,493.2l-16.167-11.591a7.447,7.447,0,1,0-8.54,12.2l18.912,13.422a9.173,9.173,0,0,0,1.526,2.135,7.289,7.289,0,0,0,10.295-.528l.076-.082,31.724-35.079a7.628,7.628,0,0,0-.61-10.676Z" transform="translate(31.695 216.487)" fill="#982226"/><path d="M3108.646,500a7.283,7.283,0,0,0-10.294.528.861.861,0,0,0-.076.082L3071.432,530.2l-16.167-11.591a7.447,7.447,0,1,0-8.54,12.2h0l18.912,13.421a9.175,9.175,0,0,0,1.526,2.135,7.286,7.286,0,0,0,10.295-.528l.076-.082,31.724-35.079a7.657,7.657,0,0,0-.61-10.676Z" transform="translate(31.695 292.35)" fill="#982226"/><path d="M3104.946,532.8a7.293,7.293,0,0,0-10.3.528c-.024.025-.049.055-.073.082L3067.731,563l-16.167-11.591a7.447,7.447,0,0,0-8.541,12.2l18.913,13.422a9.141,9.141,0,0,0,1.525,2.135,7.287,7.287,0,0,0,10.3-.528l.073-.082,31.723-35.11a7.625,7.625,0,0,0-.61-10.646Z" transform="translate(24.11 359.603)" fill="#982226"/></g></g></svg>