<svg xmlns="http://www.w3.org/2000/svg" width="115" height="115" viewBox="0 0 115 115">
  <g id="Group_67" data-name="Group 67" transform="translate(-464 -2196)">
    <g id="Group_66" data-name="Group 66" transform="translate(464 2196)">
      <path id="Path_236" data-name="Path 236" d="M57.5,0A57.5,57.5,0,1,1,0,57.5,57.5,57.5,0,0,1,57.5,0Z" transform="translate(0 0)" fill="#111212"/>
      <path id="Path_235" data-name="Path 235" d="M49.742,0A49.742,49.742,0,1,1,0,49.742,49.742,49.742,0,0,1,49.742,0Z" transform="translate(7.758 7.758)" fill="#222323"/>
    </g>
    <path id="Path_221" data-name="Path 221" d="M589.962,512.342a.032.032,0,0,0-.032-.032c0-.032,0-.032-.032-.065a2.642,2.642,0,0,0-1.751-1.459l-6.388-1.654,2.529-4.28a2.794,2.794,0,0,0,.357-1.3v-3.372a2.685,2.685,0,0,0-.454-1.621l-.032-.032a.448.448,0,0,1-.1-.13c-.032-.032-.032-.065-.065-.1a.032.032,0,0,0-.032-.032c-.032-.065-.1-.1-.13-.13l-4.28-4.28a2.659,2.659,0,0,0-2.075-.778,3.05,3.05,0,0,0-1.167.357l-6.713,3.956h0l-.681-.292-1.946-7.556a2.616,2.616,0,0,0-1.492-1.751h-.032c-.032,0-.065-.032-.1-.032s-.065-.032-.1-.032h0a2.485,2.485,0,0,0-.876-.13h-6.064a2.809,2.809,0,0,0-1.038.195c-.032,0-.032,0-.065.032-.032,0-.032.032-.065.032a2.731,2.731,0,0,0-1.459,1.751l-1.946,7.556-.681.292h0l-6.713-3.956a2.576,2.576,0,0,0-1.167-.357,2.659,2.659,0,0,0-2.075.778l-4.28,4.248-.13.13-.032.032c-.032.032-.032.065-.065.1a.448.448,0,0,0-.1.13l-.032.032a2.625,2.625,0,0,0-.454,1.621v3.372a2.6,2.6,0,0,0,.357,1.3l2.529,4.28-6.388,1.654a2.642,2.642,0,0,0-1.751,1.459c0,.032-.032.032-.032.065a.032.032,0,0,1-.032.032,2.809,2.809,0,0,0-.195,1.038h0v9.5a2.669,2.669,0,0,0,2.01,2.594l6.388,1.654-2.529,4.281c-.065.1-.1.227-.162.324h0a2.467,2.467,0,0,0-.195,1.167v3.178a2.636,2.636,0,0,0,.778,2.01l4.28,4.28a2.657,2.657,0,0,0,3.243.422l6.712-3.956.681.292,1.946,7.556a2.677,2.677,0,0,0,2.594,2.01h6.064a2.669,2.669,0,0,0,2.594-2.01l1.946-7.556.681-.292,6.713,3.956a2.651,2.651,0,0,0,3.243-.422l4.28-4.28a2.636,2.636,0,0,0,.778-2.01v-3.178a2.467,2.467,0,0,0-.195-1.167h0a1.512,1.512,0,0,0-.162-.324l-2.529-4.281,6.388-1.654a2.677,2.677,0,0,0,2.01-2.594v-9.5h0A1.679,1.679,0,0,0,589.962,512.342Zm-28.634-2.4a8.086,8.086,0,1,1-9.4,7.88A9.548,9.548,0,0,1,561.328,509.943Z" transform="translate(-39.843 1737.018)" fill="#111212"/>
    <path id="Path_222" data-name="Path 222" d="M590.925,560.05a14.625,14.625,0,1,1,14.625-14.625A14.628,14.628,0,0,1,590.925,560.05Zm0-24.159a9.566,9.566,0,1,0,9.566,9.566A9.584,9.584,0,0,0,590.925,535.891Z" transform="translate(-69.439 1707.827)" fill="#e7ad27"/>
    <path id="Path_223" data-name="Path 223" d="M584.711,490.179v-.324a2.636,2.636,0,0,0-.778-1.751l-4.281-4.28a2.657,2.657,0,0,0-3.243-.422l-6.713,3.956-.681-.292-1.946-7.556a2.677,2.677,0,0,0-2.594-2.01h-6.064a2.669,2.669,0,0,0-2.594,2.01l-1.946,7.556-.681.292-6.713-3.956a2.652,2.652,0,0,0-3.243.422l-4.345,4.28a2.636,2.636,0,0,0-.778,1.751v3.632a2.6,2.6,0,0,0,.357,1.3l2.529,4.28-6.388,1.654a2.677,2.677,0,0,0-2.01,2.594v9.5a2.669,2.669,0,0,0,2.01,2.594L541,517.062l-2.529,4.28a2.522,2.522,0,0,0-.357,1.362v3.308a2.636,2.636,0,0,0,.778,2.01l4.28,4.28a2.657,2.657,0,0,0,3.243.422l6.713-3.956.681.292,1.946,7.556a2.677,2.677,0,0,0,2.594,2.01h6.064a2.669,2.669,0,0,0,2.594-2.01l1.946-7.556.681-.292,6.712,3.956a2.652,2.652,0,0,0,3.243-.422l4.28-4.28a2.635,2.635,0,0,0,.778-2.01V522.7a2.944,2.944,0,0,0-.357-1.362l-2.529-4.28,6.388-1.654a2.677,2.677,0,0,0,2.01-2.594v-9.5a2.669,2.669,0,0,0-2.01-2.594l-6.388-1.654,2.529-4.28a2.794,2.794,0,0,0,.357-1.3v-.065ZM561.4,515.894a9.566,9.566,0,1,1,9.566-9.566A9.584,9.584,0,0,1,561.4,515.894Z" transform="translate(-39.91 1743.843)" fill="#e7ad27"/>
    <path id="Path_224" data-name="Path 224" d="M578.289,502.6a20.689,20.689,0,1,0,20.689,20.689A20.683,20.683,0,0,0,578.289,502.6Zm0,30.19a9.5,9.5,0,1,1,9.5-9.5A9.494,9.494,0,0,1,578.289,532.79Z" transform="translate(-56.803 1726.882)" fill="#fede3a"/>
    <path id="Path_225" data-name="Path 225" d="M610.306,490.8H600.124a2.683,2.683,0,0,1-2.594-3.34l2.043-7.945a2.677,2.677,0,0,1,2.594-2.01h6.064a2.669,2.669,0,0,1,2.594,2.01l2.043,7.945A2.633,2.633,0,0,1,610.306,490.8Z" transform="translate(-83.73 1743.843)" fill="#fede3a"/>
    <path id="Path_226" data-name="Path 226" d="M600.168,614.3H610.35a2.683,2.683,0,0,1,2.594,3.34l-2.043,7.945a2.677,2.677,0,0,1-2.594,2.01h-6.064a2.669,2.669,0,0,1-2.594-2.01l-2.043-7.945A2.648,2.648,0,0,1,600.168,614.3Z" transform="translate(-83.774 1651.404)" fill="#fede3a"/>
    <path id="Path_227" data-name="Path 227" d="M669.3,555.306V545.124a2.683,2.683,0,0,1,3.34-2.594l7.945,2.043a2.677,2.677,0,0,1,2.01,2.594v6.064a2.669,2.669,0,0,1-2.01,2.594l-7.945,2.043A2.648,2.648,0,0,1,669.3,555.306Z" transform="translate(-132.282 1699.955)" fill="#fede3a"/>
    <path id="Path_228" data-name="Path 228" d="M545.8,545.168V555.35a2.683,2.683,0,0,1-3.34,2.594L534.51,555.9a2.677,2.677,0,0,1-2.01-2.594v-6.064a2.669,2.669,0,0,1,2.01-2.594l7.945-2.043A2.648,2.648,0,0,1,545.8,545.168Z" transform="translate(-39.843 1699.912)" fill="#fede3a"/>
    <path id="Path_229" data-name="Path 229" d="M649.768,510.462l-7.2-7.2a2.671,2.671,0,0,1,.519-4.183l7.069-4.151a2.651,2.651,0,0,1,3.243.422l4.281,4.28a2.657,2.657,0,0,1,.422,3.243l-4.151,7.069A2.652,2.652,0,0,1,649.768,510.462Z" transform="translate(-113.69 1732.316)" fill="#fede3a"/>
    <path id="Path_230" data-name="Path 230" d="M558.3,587.569l7.2,7.2a2.671,2.671,0,0,1-.519,4.183l-7.069,4.151a2.652,2.652,0,0,1-3.243-.422l-4.313-4.281a2.657,2.657,0,0,1-.422-3.243l4.151-7.069A2.7,2.7,0,0,1,558.3,587.569Z" transform="translate(-51.37 1669.996)" fill="#fede3a"/>
    <path id="Path_231" data-name="Path 231" d="M642.569,594.768l7.2-7.2a2.671,2.671,0,0,1,4.183.519l4.151,7.069a2.651,2.651,0,0,1-.422,3.243l-4.281,4.28a2.657,2.657,0,0,1-3.243.422l-7.069-4.151A2.671,2.671,0,0,1,642.569,594.768Z" transform="translate(-113.69 1669.996)" fill="#fede3a"/>
    <path id="Path_232" data-name="Path 232" d="M565.562,503.263l-7.2,7.2a2.671,2.671,0,0,1-4.183-.519l-4.151-7.069a2.651,2.651,0,0,1,.422-3.243l4.28-4.28a2.657,2.657,0,0,1,3.243-.422l7.069,4.151A2.671,2.671,0,0,1,565.562,503.263Z" transform="translate(-51.437 1732.315)" fill="#fede3a"/>
    <path id="Path_233" data-name="Path 233" d="M585.316,547.633a17.316,17.316,0,1,1,17.316-17.316A17.334,17.334,0,0,1,585.316,547.633Zm0-31.941a14.625,14.625,0,1,0,14.625,14.625A14.628,14.628,0,0,0,585.316,515.691Z" transform="translate(-63.831 1719.855)" fill="#fff335"/>
    <path id="Path_234" data-name="Path 234" d="M590.925,550.55a14.625,14.625,0,1,1,14.625-14.625A14.628,14.628,0,0,1,590.925,550.55Zm0-24.159a9.566,9.566,0,1,0,9.566,9.566A9.584,9.584,0,0,0,590.925,526.391Z" transform="translate(-69.439 1714.246)" fill="#f7cb15"/>
  </g>
</svg>
