<svg xmlns="http://www.w3.org/2000/svg" width="182" height="182" viewBox="0 0 182 182"><g transform="translate(-576.292 -1672.292)"><circle cx="91" cy="91" r="91" transform="translate(576.292 1672.292)" fill="#111212"/><circle cx="79.86" cy="79.86" r="79.86" transform="translate(587.434 1683.434)" fill="#222323"/><path d="M361.378,310.664h0v-.046a4.106,4.106,0,0,0-.023-.533.791.791,0,0,0-.023-.232c0-.116-.023-.209-.023-.325,0-.093-.023-.186-.023-.278,0-.07-.023-.139-.023-.209-.023-.232-.07-.464-.116-.7a.085.085,0,0,0-.023-.07,3.779,3.779,0,0,0-.093-.441v-.023a12.636,12.636,0,0,0-24.633,0h0c-.023.139-.07.278-.093.441a.085.085,0,0,1-.023.07c-.046.232-.07.464-.116.7,0,.07-.023.139-.023.209,0,.093-.023.186-.023.278,0,.116-.023.209-.023.325a.791.791,0,0,1-.023.232c0,.186-.023.348-.023.533v.023h0a13.067,13.067,0,0,0,.58,3.827l-13.291,10.832a12.639,12.639,0,0,0-15.239,2.25l-9.788-4.059v-.209a4.853,4.853,0,0,0-.023-.58v-.186c0-.139-.023-.278-.023-.417a.509.509,0,0,0-.023-.186c-.023-.186-.046-.371-.069-.533,0-.046-.023-.116-.023-.162-.023-.116-.046-.255-.07-.371-.023-.093-.023-.162-.046-.232-.023-.093-.046-.209-.07-.3s-.046-.162-.07-.255c-.046-.162-.093-.3-.139-.464h0a12.621,12.621,0,0,0-24.146.023,3.1,3.1,0,0,0-.116.441c-.023.093-.046.162-.07.255s-.046.186-.07.3a.983.983,0,0,0-.046.255c-.023.116-.046.255-.07.371,0,.046-.023.116-.023.162-.023.186-.046.348-.07.533,0,.07-.023.116-.023.186a2.521,2.521,0,0,0-.023.418v.186c0,.186-.023.394-.023.58h0a13.222,13.222,0,0,0,.255,2.551c.046.209.093.417.139.6a12.158,12.158,0,0,0,.6,1.763c.07.162.139.3.209.464L258.9,344.993a12.457,12.457,0,0,0-4.662-.9,12.64,12.64,0,0,0-12.084,8.93c-.046.139-.093.3-.139.464-.023.093-.046.162-.07.255s-.046.209-.07.3a.985.985,0,0,0-.046.255c-.023.116-.046.255-.07.371,0,.047-.023.116-.023.162-.023.186-.046.348-.07.533,0,.07-.023.116-.023.186a2.523,2.523,0,0,0-.023.418v.186c0,.186-.023.394-.023.58a12.62,12.62,0,0,0,24.471,4.337c.07-.186.139-.394.209-.58a13.621,13.621,0,0,0,.557-3.108c0-.209.023-.441.023-.649a4.848,4.848,0,0,0-.023-.58v-.186c0-.139-.023-.278-.023-.418a.511.511,0,0,0-.023-.186c-.023-.186-.046-.371-.07-.533,0-.046-.023-.116-.023-.162-.023-.116-.046-.255-.07-.371-.023-.093-.023-.162-.046-.255s-.046-.209-.07-.3-.046-.162-.07-.255c-.046-.162-.093-.3-.139-.464h0a13.107,13.107,0,0,0-.649-1.67l15.378-16.329a12.456,12.456,0,0,0,4.662.9,6.1,6.1,0,0,0,.649-.023,12.671,12.671,0,0,0,3.108-.557c.209-.07.394-.139.58-.209a12.411,12.411,0,0,0,4.732-3.085l9.788,4.059v.209h0a12.665,12.665,0,0,0,3.688,8.93c.139.139.278.278.441.417a9.55,9.55,0,0,0,.928.765,12.593,12.593,0,0,0,7.562,2.505,6.069,6.069,0,0,0,.649-.023,12.666,12.666,0,0,0,3.108-.557c.209-.07.394-.139.58-.209a12.781,12.781,0,0,0,3.6-2.041c.186-.162.371-.3.557-.487a12.558,12.558,0,0,0,4.129-9.347,4.843,4.843,0,0,0-.023-.58v-.186c0-.139-.023-.278-.023-.418a.513.513,0,0,0-.023-.186c-.023-.186-.046-.371-.07-.533,0-.046-.023-.116-.023-.162-.023-.116-.046-.255-.07-.371-.023-.093-.023-.162-.046-.232-.023-.093-.046-.209-.07-.3s-.046-.162-.07-.255c-.046-.162-.093-.3-.139-.464h0c-.023-.046-.023-.093-.046-.139l13.267-10.832a12.711,12.711,0,0,0,18.927-10.948Z" transform="translate(365.758 1418.44)" fill="#141414"/><path d="M278.836,635.6H276.4v15.378h9.278V635.6h-6.842Z" transform="translate(339.03 1159.146)" fill="#141414"/><path d="M686.012,438.9H683.6v61h9.278v-61h-6.866Z" transform="translate(26.279 1310.222)" fill="#141414"/><path d="M414.535,491.5H412.1v48.8h9.278V491.5h-6.842Z" transform="translate(234.805 1269.822)" fill="#141414"/><path d="M550.312,547.7H547.9v35.766h9.278V547.7h-6.865Z" transform="translate(130.504 1226.658)" fill="#141414"/><path d="M288.65,369.938l-6.75-6.379,33.656-35.743,31.893,13.2L376.767,317.1l5.868,7.19L349,351.707l-31.081-12.873Z" transform="translate(334.806 1403.77)" fill="#fff"/><path d="M349,358.343,317.921,345.47l-29.272,31.1-3.9-3.665-2.853,3.015,6.75,6.379,29.272-31.1L349,364.072l33.632-27.416-2.807-3.456Z" transform="translate(334.806 1391.405)" fill="#d1d3d4"/><circle cx="12.618" cy="12.618" r="12.618" transform="translate(607.451 1757.889)" fill="#f6de25"/><path d="M254.618,524.13a12.611,12.611,0,0,1-12.061-8.93,12.9,12.9,0,0,0-.557,3.688,12.618,12.618,0,1,0,25.236,0,12.14,12.14,0,0,0-.557-3.688A12.59,12.59,0,0,1,254.618,524.13Z" transform="translate(365.451 1251.619)" fill="#e7ad27"/><circle cx="12.618" cy="12.618" r="12.618" transform="translate(638.926 1724.466)" fill="#e5232b"/><circle cx="12.618" cy="12.618" r="12.618" transform="translate(670.425 1737.524)" fill="#f6de25"/><circle cx="12.618" cy="12.618" r="12.618" transform="translate(701.9 1711.848)" fill="#e5232b"/><path d="M390.318,380.03a12.611,12.611,0,0,1-12.061-8.93,12.9,12.9,0,0,0-.557,3.688,12.618,12.618,0,1,0,25.236,0,12.139,12.139,0,0,0-.557-3.688A12.569,12.569,0,0,1,390.318,380.03Z" transform="translate(261.227 1362.296)" fill="#c21e24"/><path d="M526.118,436.23a12.611,12.611,0,0,1-12.061-8.93,12.9,12.9,0,0,0-.557,3.688,12.618,12.618,0,1,0,25.236,0,12.139,12.139,0,0,0-.557-3.688A12.611,12.611,0,0,1,526.118,436.23Z" transform="translate(156.925 1319.131)" fill="#e7ad27"/><path d="M661.818,325.63a12.611,12.611,0,0,1-12.061-8.93,12.9,12.9,0,0,0-.557,3.688,12.618,12.618,0,0,0,25.236,0,12.138,12.138,0,0,0-.557-3.688A12.611,12.611,0,0,1,661.818,325.63Z" transform="translate(52.7 1404.078)" fill="#c21e24"/><rect width="9.278" height="15.378" transform="translate(615.43 1790.107)" fill="#d1d3d4"/><rect width="4.43" height="15.378" transform="translate(617.866 1790.107)" fill="#fff"/><rect width="9.278" height="48.802" transform="translate(646.906 1756.683)" fill="#d1d3d4"/><rect width="9.278" height="35.766" transform="translate(678.404 1769.719)" fill="#d1d3d4"/><rect width="9.278" height="61.002" transform="translate(709.879 1744.483)" fill="#d1d3d4"/><rect width="4.43" height="61.002" transform="translate(712.291 1744.483)" fill="#fff"/><rect width="4.43" height="48.802" transform="translate(649.341 1756.683)" fill="#fff"/><rect width="4.43" height="35.766" transform="translate(680.816 1769.719)" fill="#fff"/></g></svg>