<svg xmlns="http://www.w3.org/2000/svg" width="1920" height="1184.682" viewBox="0 0 1920 1184.682"><g transform="translate(0 -3541)"><path d="M-3980,316.227v-3.773L-2060,0V872.227l-1920,312.455Z" transform="translate(3980 3541)" fill="#222323"/><path d="M-377.1-70.2a40.832,40.832,0,0,1,19.4,4.4,31.434,31.434,0,0,1,12.85,12.35A36.287,36.287,0,0,1-340.3-35.1a36.36,36.36,0,0,1-4.55,18.3,31.268,31.268,0,0,1-12.9,12.4A40.908,40.908,0,0,1-377.1,0h-26.3V-70.2Zm-1.1,55.4q9.7,0,15.1-5.3t5.4-15q0-9.7-5.4-15.1t-15.1-5.4h-8.1v40.8Zm64.6-55.4V0h-17.1V-70.2Zm59,22.2a12.79,12.79,0,0,0-5.45-5.35,17.832,17.832,0,0,0-8.35-1.85q-8.3,0-13.3,5.45t-5,14.55q0,9.7,5.25,15.15T-267-14.6a17.477,17.477,0,0,0,10.65-3.2A18.136,18.136,0,0,0-250-27h-21.7V-39.6h37.2v15.9a33.542,33.542,0,0,1-6.45,11.9A34.032,34.032,0,0,1-252.5-2.9,35.7,35.7,0,0,1-268.3.5a37.4,37.4,0,0,1-18.55-4.55,32.409,32.409,0,0,1-12.7-12.65,37.12,37.12,0,0,1-4.55-18.5,37.4,37.4,0,0,1,4.55-18.55,32.409,32.409,0,0,1,12.65-12.7A37.121,37.121,0,0,1-268.4-71q12.6,0,21.25,6.1A28.787,28.787,0,0,1-235.7-48Zm46.7-22.2V0H-225V-70.2Zm62.9,0v13.7h-18.6V0h-17.1V-56.5h-18.6V-70.2Zm52.3,57.8h-26.2L-123.1,0H-141l25.4-70.2h19.8L-70.4,0H-88.5Zm-4.4-13.2-8.7-25.7-8.6,25.7Zm51.5,12.4h22.4V0H-62.7V-70.2h17.1ZM-649.2,120.7a36.111,36.111,0,0,1-13.8-2.5,22.494,22.494,0,0,1-9.75-7.4A20.218,20.218,0,0,1-676.6,99h18.2a8.831,8.831,0,0,0,2.7,5.95,8.68,8.68,0,0,0,6,2.05,9.383,9.383,0,0,0,6-1.75,5.853,5.853,0,0,0,2.2-4.85,5.741,5.741,0,0,0-1.75-4.3,14.117,14.117,0,0,0-4.3-2.8,69.168,69.168,0,0,0-7.25-2.5,78.938,78.938,0,0,1-11.1-4.2,20.509,20.509,0,0,1-7.4-6.2q-3.1-4.1-3.1-10.7,0-9.8,7.1-15.35t18.5-5.55q11.6,0,18.7,5.55t7.6,15.45H-643a7.236,7.236,0,0,0-2.5-5.35,8.807,8.807,0,0,0-5.9-1.95,7.354,7.354,0,0,0-5,1.65,5.951,5.951,0,0,0-1.9,4.75,5.888,5.888,0,0,0,3.2,5.3,52.457,52.457,0,0,0,10,4.1,92.479,92.479,0,0,1,11.05,4.4,21.036,21.036,0,0,1,7.35,6.1,16.329,16.329,0,0,1,3.1,10.3,20.212,20.212,0,0,1-3.05,10.9,21.362,21.362,0,0,1-8.85,7.8A30.3,30.3,0,0,1-649.2,120.7Zm69.3,0a36.638,36.638,0,0,1-18.15-4.6,34.387,34.387,0,0,1-13.1-12.85A35.913,35.913,0,0,1-616,84.7a35.647,35.647,0,0,1,4.85-18.5,34.5,34.5,0,0,1,13.1-12.8,36.638,36.638,0,0,1,18.15-4.6,36.638,36.638,0,0,1,18.15,4.6,33.773,33.773,0,0,1,13,12.8A36.228,36.228,0,0,1-544,84.7a36.2,36.2,0,0,1-4.8,18.55,34.129,34.129,0,0,1-13,12.85A36.36,36.36,0,0,1-579.9,120.7Zm0-15.6q8.4,0,13.45-5.6t5.05-14.8q0-9.3-5.05-14.85T-579.9,64.3q-8.5,0-13.55,5.5t-5.05,14.9q0,9.3,5.05,14.85T-579.9,105.1Zm62.5,1.7H-495V120h-39.5V49.8h17.1Zm47.4-57v42q0,6.3,3.1,9.7t9.1,3.4q6,0,9.2-3.4t3.2-9.7v-42h17.1V91.7q0,9.4-4,15.9a25.613,25.613,0,0,1-10.75,9.8,33.807,33.807,0,0,1-15.05,3.3,32.965,32.965,0,0,1-14.85-3.25,24.229,24.229,0,0,1-10.35-9.8q-3.8-6.55-3.8-15.95V49.8Zm104.2,0V63.5h-18.6V120h-17.1V63.5h-18.6V49.8Zm25.7,0V120h-17.1V49.8Zm45.6,70.9a36.638,36.638,0,0,1-18.15-4.6,34.387,34.387,0,0,1-13.1-12.85A35.913,35.913,0,0,1-330.6,84.7a35.647,35.647,0,0,1,4.85-18.5,34.5,34.5,0,0,1,13.1-12.8,36.638,36.638,0,0,1,18.15-4.6,36.638,36.638,0,0,1,18.15,4.6,33.773,33.773,0,0,1,13,12.8,36.229,36.229,0,0,1,4.75,18.5,36.2,36.2,0,0,1-4.8,18.55,34.129,34.129,0,0,1-13,12.85A36.36,36.36,0,0,1-294.5,120.7Zm0-15.6q8.4,0,13.45-5.6T-276,84.7q0-9.3-5.05-14.85T-294.5,64.3q-8.5,0-13.55,5.5t-5.05,14.9q0,9.3,5.05,14.85T-294.5,105.1ZM-186.3,120h-17.1L-232,76.7V120h-17.1V49.8H-232l28.6,43.5V49.8h17.1Zm84.1-70.2V63.5h-18.6V120h-17.1V63.5h-18.6V49.8Zm41.8,70.9a36.638,36.638,0,0,1-18.15-4.6,34.387,34.387,0,0,1-13.1-12.85A35.913,35.913,0,0,1-96.5,84.7a35.647,35.647,0,0,1,4.85-18.5,34.5,34.5,0,0,1,13.1-12.8A36.638,36.638,0,0,1-60.4,48.8a36.638,36.638,0,0,1,18.15,4.6,33.773,33.773,0,0,1,13,12.8A36.229,36.229,0,0,1-24.5,84.7a36.2,36.2,0,0,1-4.8,18.55,34.129,34.129,0,0,1-13,12.85A36.36,36.36,0,0,1-60.4,120.7Zm0-15.6q8.4,0,13.45-5.6t5.05-14.8q0-9.3-5.05-14.85T-60.4,64.3q-8.5,0-13.55,5.5T-79,84.7q0,9.3,5.05,14.85T-60.4,105.1Zm-487.7,64.7-24.3,47V240h-17.1V216.8l-24.3-47h19.4l13.6,29.4,13.5-29.4Zm40.1,70.9a36.638,36.638,0,0,1-18.15-4.6,34.387,34.387,0,0,1-13.1-12.85,35.913,35.913,0,0,1-4.85-18.55,35.647,35.647,0,0,1,4.85-18.5,34.5,34.5,0,0,1,13.1-12.8A36.638,36.638,0,0,1-508,168.8a36.638,36.638,0,0,1,18.15,4.6,33.773,33.773,0,0,1,13,12.8,36.229,36.229,0,0,1,4.75,18.5,36.2,36.2,0,0,1-4.8,18.55,34.128,34.128,0,0,1-13,12.85A36.36,36.36,0,0,1-508,240.7Zm0-15.6q8.4,0,13.45-5.6t5.05-14.8q0-9.3-5.05-14.85T-508,184.3q-8.5,0-13.55,5.5t-5.05,14.9q0,9.3,5.05,14.85T-508,225.1Zm62.2-55.3v42q0,6.3,3.1,9.7t9.1,3.4q6,0,9.2-3.4t3.2-9.7v-42h17.1v41.9q0,9.4-4,15.9a25.613,25.613,0,0,1-10.75,9.8,33.807,33.807,0,0,1-15.05,3.3,32.965,32.965,0,0,1-14.85-3.25,24.229,24.229,0,0,1-10.35-9.8q-3.8-6.55-3.8-15.95V169.8Zm89.5,70.2-14.6-26.5H-375V240h-17.1V169.8h28.7a31.6,31.6,0,0,1,14.15,2.9,19.976,19.976,0,0,1,8.75,7.95,22.184,22.184,0,0,1,2.9,11.25,20.9,20.9,0,0,1-3.95,12.5q-3.95,5.5-11.65,7.8L-337,240ZM-375,201.4h10.6q4.7,0,7.05-2.3a8.681,8.681,0,0,0,2.35-6.5,8.411,8.411,0,0,0-2.35-6.3q-2.35-2.3-7.05-2.3H-375Zm95.6-31.6a40.832,40.832,0,0,1,19.4,4.4,31.435,31.435,0,0,1,12.85,12.35,36.287,36.287,0,0,1,4.55,18.35,36.36,36.36,0,0,1-4.55,18.3,31.268,31.268,0,0,1-12.9,12.4A40.908,40.908,0,0,1-279.4,240h-26.3V169.8Zm-1.1,55.4q9.7,0,15.1-5.3t5.4-15q0-9.7-5.4-15.1t-15.1-5.4h-8.1v40.8Zm91.2,2.4h-26.2l-4.2,12.4h-17.9l25.4-70.2h19.8L-167,240h-18.1Zm-4.4-13.2-8.7-25.7-8.6,25.7Zm51.5-44.6V240h-17.1V169.8Zm29.5,57h22.4V240h-39.5V169.8h17.1Zm90.8-57-24.3,47V240H-63.3V216.8l-24.3-47h19.4l13.6,29.4,13.5-29.4ZM-467.5,312.4a22.606,22.606,0,0,1-2.8,11.15,20.587,20.587,0,0,1-8.6,8.15q-5.8,3.1-14.4,3.1h-10.6V360H-521V289.8h27.7a31.523,31.523,0,0,1,14.2,2.9,19.931,19.931,0,0,1,8.7,8A23.252,23.252,0,0,1-467.5,312.4Zm-27.1,8.8q4.9,0,7.3-2.3a8.578,8.578,0,0,0,2.4-6.5,8.579,8.579,0,0,0-2.4-6.5q-2.4-2.3-7.3-2.3h-9.3v17.6Zm71.8,38.8-14.6-26.5h-4.1V360h-17.1V289.8h28.7a31.6,31.6,0,0,1,14.15,2.9,19.976,19.976,0,0,1,8.75,7.95,22.184,22.184,0,0,1,2.9,11.25,20.9,20.9,0,0,1-3.95,12.5q-3.95,5.5-11.65,7.8l16.2,27.8Zm-18.7-38.6h10.6q4.7,0,7.05-2.3a8.682,8.682,0,0,0,2.35-6.5,8.411,8.411,0,0,0-2.35-6.3q-2.35-2.3-7.05-2.3h-10.6Zm81.3,39.3a36.638,36.638,0,0,1-18.15-4.6,34.387,34.387,0,0,1-13.1-12.85,35.913,35.913,0,0,1-4.85-18.55,35.647,35.647,0,0,1,4.85-18.5,34.5,34.5,0,0,1,13.1-12.8,36.638,36.638,0,0,1,18.15-4.6,36.638,36.638,0,0,1,18.15,4.6,33.773,33.773,0,0,1,13,12.8,36.229,36.229,0,0,1,4.75,18.5,36.2,36.2,0,0,1-4.8,18.55,34.129,34.129,0,0,1-13,12.85A36.36,36.36,0,0,1-360.2,360.7Zm0-15.6q8.4,0,13.45-5.6t5.05-14.8q0-9.3-5.05-14.85t-13.45-5.55q-8.5,0-13.55,5.5t-5.05,14.9q0,9.3,5.05,14.85T-360.2,345.1Zm87.9-21.1a16.328,16.328,0,0,1,9.8,6.05,17.178,17.178,0,0,1,3.7,10.85q0,8.8-6.15,13.95T-282.1,360h-32.7V289.8h31.6q10.7,0,16.75,4.9t6.05,13.3a16.065,16.065,0,0,1-3.25,10.3A16.808,16.808,0,0,1-272.3,324Zm-25.4-5.8h11.2a9.916,9.916,0,0,0,6.45-1.85,6.647,6.647,0,0,0,2.25-5.45,6.8,6.8,0,0,0-2.25-5.5,9.733,9.733,0,0,0-6.45-1.9h-11.2Zm12.6,28a10.14,10.14,0,0,0,6.65-1.95,6.923,6.923,0,0,0,2.35-5.65,7.233,7.233,0,0,0-2.45-5.8,10.04,10.04,0,0,0-6.75-2.1h-12.4v15.5Zm53.3.6h22.4V360h-39.5V289.8h17.1Zm47.7-43.3v14.2h22.9v13.2h-22.9v15.4h25.9V360h-43V289.8h43v13.7Zm116.5-13.7V360H-84.7V317.9L-100.4,360h-13.8L-130,317.8V360h-17.1V289.8h20.2l19.7,48.6,19.5-48.6Zm37.7,70.9a36.111,36.111,0,0,1-13.8-2.5,22.494,22.494,0,0,1-9.75-7.4A20.217,20.217,0,0,1-57.3,339h18.2a8.831,8.831,0,0,0,2.7,5.95,8.679,8.679,0,0,0,6,2.05,9.384,9.384,0,0,0,6-1.75,5.853,5.853,0,0,0,2.2-4.85,5.741,5.741,0,0,0-1.75-4.3,14.117,14.117,0,0,0-4.3-2.8,69.178,69.178,0,0,0-7.25-2.5,78.941,78.941,0,0,1-11.1-4.2,20.509,20.509,0,0,1-7.4-6.2q-3.1-4.1-3.1-10.7,0-9.8,7.1-15.35t18.5-5.55q11.6,0,18.7,5.55t7.6,15.45H-23.7a7.235,7.235,0,0,0-2.5-5.35,8.807,8.807,0,0,0-5.9-1.95,7.354,7.354,0,0,0-5,1.65A5.951,5.951,0,0,0-39,308.9a5.888,5.888,0,0,0,3.2,5.3,52.455,52.455,0,0,0,10,4.1,92.486,92.486,0,0,1,11.05,4.4,21.036,21.036,0,0,1,7.35,6.1,16.329,16.329,0,0,1,3.1,10.3A20.212,20.212,0,0,1-7.35,350a21.361,21.361,0,0,1-8.85,7.8A30.3,30.3,0,0,1-29.9,360.7Z" transform="translate(1738 3892)" fill="#545757" opacity="0.1"/><path d="M32.5-70.2a40.832,40.832,0,0,1,19.4,4.4A31.435,31.435,0,0,1,64.75-53.45,36.287,36.287,0,0,1,69.3-35.1a36.36,36.36,0,0,1-4.55,18.3A31.268,31.268,0,0,1,51.85-4.4,40.908,40.908,0,0,1,32.5,0H6.2V-70.2ZM31.4-14.8q9.7,0,15.1-5.3t5.4-15q0-9.7-5.4-15.1T31.4-55.6H23.3v40.8ZM96-70.2V0H78.9V-70.2ZM155-48a12.79,12.79,0,0,0-5.45-5.35,17.832,17.832,0,0,0-8.35-1.85q-8.3,0-13.3,5.45t-5,14.55q0,9.7,5.25,15.15T142.6-14.6a17.477,17.477,0,0,0,10.65-3.2A18.136,18.136,0,0,0,159.6-27H137.9V-39.6h37.2v15.9a33.542,33.542,0,0,1-6.45,11.9A34.032,34.032,0,0,1,157.1-2.9,35.7,35.7,0,0,1,141.3.5a37.4,37.4,0,0,1-18.55-4.55,32.409,32.409,0,0,1-12.7-12.65,37.121,37.121,0,0,1-4.55-18.5,37.4,37.4,0,0,1,4.55-18.55,32.409,32.409,0,0,1,12.65-12.7A37.121,37.121,0,0,1,141.2-71q12.6,0,21.25,6.1A28.787,28.787,0,0,1,173.9-48Zm46.7-22.2V0H184.6V-70.2Zm62.9,0v13.7H246V0H228.9V-56.5H210.3V-70.2Zm52.3,57.8H290.7L286.5,0H268.6L294-70.2h19.8L339.2,0H321.1Zm-4.4-13.2-8.7-25.7-8.6,25.7ZM364-13.2h22.4V0H346.9V-70.2H364ZM31.6,120.7a36.111,36.111,0,0,1-13.8-2.5,22.494,22.494,0,0,1-9.75-7.4A20.217,20.217,0,0,1,4.2,99H22.4a8.831,8.831,0,0,0,2.7,5.95,8.679,8.679,0,0,0,6,2.05,9.384,9.384,0,0,0,6-1.75,5.853,5.853,0,0,0,2.2-4.85,5.741,5.741,0,0,0-1.75-4.3,14.117,14.117,0,0,0-4.3-2.8A69.169,69.169,0,0,0,26,90.8a78.94,78.94,0,0,1-11.1-4.2,20.509,20.509,0,0,1-7.4-6.2Q4.4,76.3,4.4,69.7q0-9.8,7.1-15.35T30,48.8q11.6,0,18.7,5.55T56.3,69.8H37.8a7.235,7.235,0,0,0-2.5-5.35,8.807,8.807,0,0,0-5.9-1.95,7.354,7.354,0,0,0-5,1.65,5.951,5.951,0,0,0-1.9,4.75,5.888,5.888,0,0,0,3.2,5.3,52.456,52.456,0,0,0,10,4.1,92.481,92.481,0,0,1,11.05,4.4,21.036,21.036,0,0,1,7.35,6.1,16.329,16.329,0,0,1,3.1,10.3A20.212,20.212,0,0,1,54.15,110a21.361,21.361,0,0,1-8.85,7.8A30.3,30.3,0,0,1,31.6,120.7Zm69.3,0a36.638,36.638,0,0,1-18.15-4.6,34.387,34.387,0,0,1-13.1-12.85A35.913,35.913,0,0,1,64.8,84.7a35.647,35.647,0,0,1,4.85-18.5,34.5,34.5,0,0,1,13.1-12.8,38.107,38.107,0,0,1,36.3,0,33.773,33.773,0,0,1,13,12.8,36.229,36.229,0,0,1,4.75,18.5,36.2,36.2,0,0,1-4.8,18.55,34.128,34.128,0,0,1-13,12.85A36.36,36.36,0,0,1,100.9,120.7Zm0-15.6q8.4,0,13.45-5.6t5.05-14.8q0-9.3-5.05-14.85T100.9,64.3q-8.5,0-13.55,5.5T82.3,84.7q0,9.3,5.05,14.85T100.9,105.1Zm62.5,1.7h22.4V120H146.3V49.8h17.1Zm47.4-57v42q0,6.3,3.1,9.7t9.1,3.4q6,0,9.2-3.4t3.2-9.7v-42h17.1V91.7q0,9.4-4,15.9a25.613,25.613,0,0,1-10.75,9.8,33.807,33.807,0,0,1-15.05,3.3,32.965,32.965,0,0,1-14.85-3.25,24.229,24.229,0,0,1-10.35-9.8q-3.8-6.55-3.8-15.95V49.8Zm104.2,0V63.5H296.4V120H279.3V63.5H260.7V49.8Zm25.7,0V120H323.6V49.8Zm45.6,70.9a36.638,36.638,0,0,1-18.15-4.6,34.387,34.387,0,0,1-13.1-12.85A35.913,35.913,0,0,1,350.2,84.7a35.647,35.647,0,0,1,4.85-18.5,34.5,34.5,0,0,1,13.1-12.8,38.107,38.107,0,0,1,36.3,0,33.773,33.773,0,0,1,13,12.8,36.229,36.229,0,0,1,4.75,18.5,36.2,36.2,0,0,1-4.8,18.55,34.129,34.129,0,0,1-13,12.85A36.36,36.36,0,0,1,386.3,120.7Zm0-15.6q8.4,0,13.45-5.6t5.05-14.8q0-9.3-5.05-14.85T386.3,64.3q-8.5,0-13.55,5.5T367.7,84.7q0,9.3,5.05,14.85T386.3,105.1ZM494.5,120H477.4L448.8,76.7V120H431.7V49.8h17.1l28.6,43.5V49.8h17.1Zm84.1-70.2V63.5H560V120H542.9V63.5H524.3V49.8Zm41.8,70.9a36.638,36.638,0,0,1-18.15-4.6,34.387,34.387,0,0,1-13.1-12.85A35.913,35.913,0,0,1,584.3,84.7a35.647,35.647,0,0,1,4.85-18.5,34.5,34.5,0,0,1,13.1-12.8,38.107,38.107,0,0,1,36.3,0,33.773,33.773,0,0,1,13,12.8,36.228,36.228,0,0,1,4.75,18.5,36.2,36.2,0,0,1-4.8,18.55,34.129,34.129,0,0,1-13,12.85A36.36,36.36,0,0,1,620.4,120.7Zm0-15.6q8.4,0,13.45-5.6t5.05-14.8q0-9.3-5.05-14.85T620.4,64.3q-8.5,0-13.55,5.5T601.8,84.7q0,9.3,5.05,14.85T620.4,105.1Zm-554,64.7-24.3,47V240H25V216.8L.7,169.8H20.1l13.6,29.4,13.5-29.4Zm40.1,70.9a36.638,36.638,0,0,1-18.15-4.6,34.387,34.387,0,0,1-13.1-12.85,37.8,37.8,0,0,1,0-37.05,34.5,34.5,0,0,1,13.1-12.8,38.107,38.107,0,0,1,36.3,0,33.773,33.773,0,0,1,13,12.8,38.322,38.322,0,0,1-.05,37.05,34.129,34.129,0,0,1-13,12.85A36.36,36.36,0,0,1,106.5,240.7Zm0-15.6q8.4,0,13.45-5.6T125,204.7q0-9.3-5.05-14.85T106.5,184.3q-8.5,0-13.55,5.5T87.9,204.7q0,9.3,5.05,14.85T106.5,225.1Zm62.2-55.3v42q0,6.3,3.1,9.7t9.1,3.4q6,0,9.2-3.4t3.2-9.7v-42h17.1v41.9q0,9.4-4,15.9a25.613,25.613,0,0,1-10.75,9.8,33.807,33.807,0,0,1-15.05,3.3,32.965,32.965,0,0,1-14.85-3.25,24.229,24.229,0,0,1-10.35-9.8q-3.8-6.55-3.8-15.95V169.8ZM258.2,240l-14.6-26.5h-4.1V240H222.4V169.8h28.7a31.6,31.6,0,0,1,14.15,2.9,19.976,19.976,0,0,1,8.75,7.95,22.184,22.184,0,0,1,2.9,11.25,20.9,20.9,0,0,1-3.95,12.5q-3.95,5.5-11.65,7.8L277.5,240Zm-18.7-38.6h10.6q4.7,0,7.05-2.3a8.681,8.681,0,0,0,2.35-6.5,8.41,8.41,0,0,0-2.35-6.3q-2.35-2.3-7.05-2.3H239.5Zm95.6-31.6a40.832,40.832,0,0,1,19.4,4.4,31.434,31.434,0,0,1,12.85,12.35,39.177,39.177,0,0,1,0,36.65,31.268,31.268,0,0,1-12.9,12.4A40.908,40.908,0,0,1,335.1,240H308.8V169.8ZM334,225.2q9.7,0,15.1-5.3t5.4-15q0-9.7-5.4-15.1T334,184.4h-8.1v40.8Zm91.2,2.4H399L394.8,240H376.9l25.4-70.2h19.8L447.5,240H429.4Zm-4.4-13.2-8.7-25.7-8.6,25.7Zm51.5-44.6V240H455.2V169.8Zm29.5,57h22.4V240H484.7V169.8h17.1Zm90.8-57-24.3,47V240H551.2V216.8l-24.3-47h19.4l13.6,29.4,13.5-29.4ZM59.7,312.4a22.606,22.606,0,0,1-2.8,11.15,20.587,20.587,0,0,1-8.6,8.15q-5.8,3.1-14.4,3.1H23.3V360H6.2V289.8H33.9a31.523,31.523,0,0,1,14.2,2.9,19.931,19.931,0,0,1,8.7,8A23.252,23.252,0,0,1,59.7,312.4Zm-27.1,8.8q4.9,0,7.3-2.3a10,10,0,0,0,0-13q-2.4-2.3-7.3-2.3H23.3v17.6ZM104.4,360,89.8,333.5H85.7V360H68.6V289.8H97.3a31.6,31.6,0,0,1,14.15,2.9,19.976,19.976,0,0,1,8.75,7.95,22.184,22.184,0,0,1,2.9,11.25,20.9,20.9,0,0,1-3.95,12.5q-3.95,5.5-11.65,7.8L123.7,360ZM85.7,321.4H96.3q4.7,0,7.05-2.3a8.681,8.681,0,0,0,2.35-6.5,8.411,8.411,0,0,0-2.35-6.3Q101,304,96.3,304H85.7ZM167,360.7a36.638,36.638,0,0,1-18.15-4.6,34.387,34.387,0,0,1-13.1-12.85,37.8,37.8,0,0,1,0-37.05,34.5,34.5,0,0,1,13.1-12.8,38.107,38.107,0,0,1,36.3,0,33.773,33.773,0,0,1,13,12.8,38.322,38.322,0,0,1-.05,37.05,34.129,34.129,0,0,1-13,12.85A36.359,36.359,0,0,1,167,360.7Zm0-15.6q8.4,0,13.45-5.6t5.05-14.8q0-9.3-5.05-14.85T167,304.3q-8.5,0-13.55,5.5t-5.05,14.9q0,9.3,5.05,14.85T167,345.1ZM254.9,324a16.328,16.328,0,0,1,9.8,6.05,17.178,17.178,0,0,1,3.7,10.85q0,8.8-6.15,13.95T245.1,360H212.4V289.8H244q10.7,0,16.75,4.9T266.8,308a16.065,16.065,0,0,1-3.25,10.3A16.808,16.808,0,0,1,254.9,324Zm-25.4-5.8h11.2a9.916,9.916,0,0,0,6.45-1.85,6.647,6.647,0,0,0,2.25-5.45,6.8,6.8,0,0,0-2.25-5.5,9.733,9.733,0,0,0-6.45-1.9H229.5Zm12.6,28a10.14,10.14,0,0,0,6.65-1.95,6.923,6.923,0,0,0,2.35-5.65,7.233,7.233,0,0,0-2.45-5.8,10.04,10.04,0,0,0-6.75-2.1H229.5v15.5Zm53.3.6h22.4V360H278.3V289.8h17.1Zm47.7-43.3v14.2H366v13.2H343.1v15.4H369V360H326V289.8h43v13.7Zm116.5-13.7V360H442.5V317.9L426.8,360H413l-15.8-42.2V360H380.1V289.8h20.2L420,338.4l19.5-48.6Zm37.7,70.9a36.111,36.111,0,0,1-13.8-2.5,22.494,22.494,0,0,1-9.75-7.4A20.217,20.217,0,0,1,469.9,339h18.2a8.831,8.831,0,0,0,2.7,5.95,8.679,8.679,0,0,0,6,2.05,9.384,9.384,0,0,0,6-1.75,5.853,5.853,0,0,0,2.2-4.85,5.741,5.741,0,0,0-1.75-4.3,14.117,14.117,0,0,0-4.3-2.8,69.177,69.177,0,0,0-7.25-2.5,78.942,78.942,0,0,1-11.1-4.2,20.509,20.509,0,0,1-7.4-6.2q-3.1-4.1-3.1-10.7,0-9.8,7.1-15.35t18.5-5.55q11.6,0,18.7,5.55T522,309.8H503.5a7.235,7.235,0,0,0-2.5-5.35,8.807,8.807,0,0,0-5.9-1.95,7.354,7.354,0,0,0-5,1.65,5.951,5.951,0,0,0-1.9,4.75,5.888,5.888,0,0,0,3.2,5.3,52.455,52.455,0,0,0,10,4.1,92.487,92.487,0,0,1,11.05,4.4,21.036,21.036,0,0,1,7.35,6.1,16.329,16.329,0,0,1,3.1,10.3,20.212,20.212,0,0,1-3.05,10.9,21.362,21.362,0,0,1-8.85,7.8A30.3,30.3,0,0,1,497.3,360.7Z" transform="translate(182 4102)" fill="#545757" opacity="0.1"/></g></svg>