<svg xmlns="http://www.w3.org/2000/svg" width="115" height="115" viewBox="0 0 115 115">
  <g id="Group_64" data-name="Group 64" transform="translate(-1390 -1650)">
    <circle id="Ellipse_32" data-name="Ellipse 32" cx="57.5" cy="57.5" r="57.5" transform="translate(1390 1650)" fill="#111212"/>
    <circle id="Ellipse_33" data-name="Ellipse 33" cx="49.635" cy="49.635" r="49.635" transform="translate(1397.741 1657.741)" fill="#222323"/>
    <g id="Group_62" data-name="Group 62" transform="translate(1431.246 1681.268)">
      <path id="Path_176" data-name="Path 176" d="M476.811,415.041a15.753,15.753,0,0,1-2.269,8.234,24.031,24.031,0,0,0-3.492,12.337v1.018a2.5,2.5,0,0,1-2.5,2.5H452.836a2.5,2.5,0,0,1-2.5-2.5v-.669a25.691,25.691,0,0,0-3.579-12.831,15.915,15.915,0,0,1-2.182-8.67,16.124,16.124,0,0,1,32.238.582Z" transform="translate(-444.562 -398.889)" fill="#e6e7e8"/>
      <path id="Path_177" data-name="Path 177" d="M486.568,415.106c0-9.049-4.306-16.352-9.572-16.119-4.917.2-8.932,7.07-9.107,15.566a26.13,26.13,0,0,0,1.251,8.67,40.614,40.614,0,0,1,2.066,12.831v.669c0,1.367.64,2.5,1.455,2.5h9.107c.786,0,1.455-1.106,1.455-2.5v-1.018a37.566,37.566,0,0,1,2.037-12.337A26.038,26.038,0,0,0,486.568,415.106Z" transform="translate(-461.098 -398.955)" fill="#fff"/>
      <path id="Path_178" data-name="Path 178" d="M474.571,452.565a24.032,24.032,0,0,0-3.492,12.336v1.018a2.5,2.5,0,0,1-2.5,2.5H452.836a2.5,2.5,0,0,1-2.5-2.5v-.669a25.691,25.691,0,0,0-3.579-12.831,16.5,16.5,0,0,1-2.037-5.819,11.079,11.079,0,0,0-.146,1.717,15.915,15.915,0,0,0,2.182,8.67,25.526,25.526,0,0,1,3.579,12.831v.669a2.5,2.5,0,0,0,2.5,2.5h15.712a2.5,2.5,0,0,0,2.5-2.5v-1.018a24.234,24.234,0,0,1,3.491-12.336,16.186,16.186,0,0,0,2.269-8.234,14.9,14.9,0,0,0-.174-2.269A16.033,16.033,0,0,1,474.571,452.565Z" transform="translate(-444.562 -432.718)" fill="#e6e7e8"/>
      <g id="Group_61" data-name="Group 61" transform="translate(8.667 15.744)">
        <path id="Path_179" data-name="Path 179" d="M489.29,454.717l-3.841,22.811h-2.939l3.637-21.589h-8.641l3.637,21.589H478.2l-3.841-22.811a1.6,1.6,0,0,1,.32-1.193A1.534,1.534,0,0,1,475.79,453h12.075a1.439,1.439,0,0,1,1.106.524A1.562,1.562,0,0,1,489.29,454.717Z" transform="translate(-474.35 -453)" fill="#fede3a"/>
      </g>
      <path id="Path_180" data-name="Path 180" d="M491.375,458l-3.87,23.073h-1.484l3.608-21.618h-8.612l3.608,21.618h-1.484L479.3,458Z" transform="translate(-469.193 -440.801)" fill="#f7cb15"/>
      <path id="Path_181" data-name="Path 181" d="M488.365,537.3v11.958a2.432,2.432,0,0,1-2.473,2.473H474.573a2.456,2.456,0,0,1-2.357-1.687,2.23,2.23,0,0,1-.116-.786V537.3Z" transform="translate(-464.088 -497.029)" fill="#e6e7e8"/>
      <path id="Path_182" data-name="Path 182" d="M485.891,576.873H474.573A2.471,2.471,0,0,1,472.1,574.4v1.135a2.471,2.471,0,0,0,2.473,2.473h11.318a2.471,2.471,0,0,0,2.473-2.473V574.4A2.471,2.471,0,0,1,485.891,576.873Z" transform="translate(-464.088 -523.334)" fill="#d1d3d4"/>
      <path id="Path_183" data-name="Path 183" d="M484.485,569.088H467.7a1.4,1.4,0,0,1-1.4-1.4V567.2a1.4,1.4,0,0,1,1.4-1.4h16.788a1.4,1.4,0,0,1,1.4,1.4v.495A1.378,1.378,0,0,1,484.485,569.088Z" transform="translate(-459.975 -517.236)" fill="#fff"/>
      <path id="Path_184" data-name="Path 184" d="M484.485,570.476H467.7a1.406,1.406,0,0,1-1.367-1.077,1.193,1.193,0,0,0-.029.32v.495a1.4,1.4,0,0,0,1.4,1.4h16.788a1.4,1.4,0,0,0,1.4-1.4v-.495a1.093,1.093,0,0,0-.029-.32A1.376,1.376,0,0,1,484.485,570.476Z" transform="translate(-459.975 -519.789)" fill="#d1d3d4"/>
      <path id="Path_185" data-name="Path 185" d="M492.755,589.722H490.34a2.241,2.241,0,0,1-2.24-2.24V586.9H495v.582A2.205,2.205,0,0,1,492.755,589.722Z" transform="translate(-475.433 -532.197)" fill="#fff"/>
      <path id="Path_186" data-name="Path 186" d="M492.755,588.517H490.34a2.246,2.246,0,0,1-2.182-1.717H488.1v.582a2.241,2.241,0,0,0,2.24,2.24h2.415a2.241,2.241,0,0,0,2.24-2.24V586.8h-.058A2.221,2.221,0,0,1,492.755,588.517Z" transform="translate(-475.433 -532.126)" fill="#d1d3d4"/>
      <path id="Path_187" data-name="Path 187" d="M484.485,549.188H467.7a1.4,1.4,0,0,1-1.4-1.4V547.3a1.4,1.4,0,0,1,1.4-1.4h16.788a1.4,1.4,0,0,1,1.4,1.4v.495A1.379,1.379,0,0,1,484.485,549.188Z" transform="translate(-459.975 -503.126)" fill="#fff"/>
      <path id="Path_188" data-name="Path 188" d="M484.485,550.577H467.7a1.406,1.406,0,0,1-1.367-1.077,1.193,1.193,0,0,0-.029.32v.495a1.4,1.4,0,0,0,1.4,1.4h16.788a1.4,1.4,0,0,0,1.4-1.4v-.495a1.093,1.093,0,0,0-.029-.32A1.376,1.376,0,0,1,484.485,550.577Z" transform="translate(-459.975 -505.679)" fill="#d1d3d4"/>
      <rect id="Rectangle_95" data-name="Rectangle 95" width="16.294" height="1.135" transform="translate(7.983 46.061)" fill="#bcbec0"/>
      <rect id="Rectangle_96" data-name="Rectangle 96" width="16.294" height="1.135" transform="translate(7.983 40.271)" fill="#bcbec0"/>
      <path id="Path_189" data-name="Path 189" d="M488.364,577.1v.378a2.45,2.45,0,0,1-.116.786H472.216a2.229,2.229,0,0,1-.116-.786V577.1Z" transform="translate(-464.088 -525.248)" fill="#bcbec0"/>
    </g>
    <g id="Group_63" data-name="Group 63" transform="translate(1418.659 1669.458)">
      <path id="Path_190" data-name="Path 190" d="M495.746,365.383h0A1.751,1.751,0,0,1,494,363.637v-3.491a1.751,1.751,0,0,1,1.746-1.746h0a1.751,1.751,0,0,1,1.746,1.746v3.491A1.751,1.751,0,0,1,495.746,365.383Z" transform="translate(-467.028 -358.371)" fill="#fede3a"/>
      <path id="Path_191" data-name="Path 191" d="M495.746,358.3A1.751,1.751,0,0,0,494,360.046v.582a1.746,1.746,0,0,1,3.491,0v-.582A1.751,1.751,0,0,0,495.746,358.3Z" transform="translate(-467.028 -358.3)" fill="#fff335"/>
      <path id="Path_192" data-name="Path 192" d="M495.746,373.146A1.751,1.751,0,0,1,494,371.4v1.455a1.746,1.746,0,1,0,3.491,0V371.4A1.751,1.751,0,0,1,495.746,373.146Z" transform="translate(-467.028 -367.588)" fill="#f7cb15"/>
      <path id="Path_193" data-name="Path 193" d="M574.6,452.846h0a1.751,1.751,0,0,1,1.746-1.746h3.491a1.751,1.751,0,0,1,1.746,1.746h0a1.751,1.751,0,0,1-1.746,1.746h-3.491A1.751,1.751,0,0,1,574.6,452.846Z" transform="translate(-524.177 -424.099)" fill="#fede3a"/>
      <path id="Path_194" data-name="Path 194" d="M576.446,451.582h3.492a1.728,1.728,0,0,1,1.717,1.455.989.989,0,0,0,.029-.291A1.751,1.751,0,0,0,579.937,451h-3.492a1.751,1.751,0,0,0-1.746,1.746.989.989,0,0,0,.029.291A1.728,1.728,0,0,1,576.446,451.582Z" transform="translate(-524.248 -424.028)" fill="#fff335"/>
      <path id="Path_195" data-name="Path 195" d="M579.937,455.618h-3.492a1.771,1.771,0,0,1-1.6-1.018,2.025,2.025,0,0,0-.146.727,1.751,1.751,0,0,0,1.746,1.746h3.492a1.751,1.751,0,0,0,1.746-1.746,2.026,2.026,0,0,0-.146-.727A1.823,1.823,0,0,1,579.937,455.618Z" transform="translate(-524.248 -426.581)" fill="#f7cb15"/>
      <path id="Path_196" data-name="Path 196" d="M401.3,452.846h0a1.751,1.751,0,0,1,1.746-1.746h3.491a1.751,1.751,0,0,1,1.746,1.746h0a1.751,1.751,0,0,1-1.746,1.746h-3.491A1.751,1.751,0,0,1,401.3,452.846Z" transform="translate(-401.3 -424.099)" fill="#fede3a"/>
      <path id="Path_197" data-name="Path 197" d="M403.046,451.582h3.491a1.728,1.728,0,0,1,1.717,1.455.989.989,0,0,0,.029-.291A1.751,1.751,0,0,0,406.537,451h-3.491a1.751,1.751,0,0,0-1.746,1.746.989.989,0,0,0,.029.291A1.728,1.728,0,0,1,403.046,451.582Z" transform="translate(-401.3 -424.028)" fill="#fff335"/>
      <path id="Path_198" data-name="Path 198" d="M406.537,455.618h-3.491a1.771,1.771,0,0,1-1.6-1.018,2.026,2.026,0,0,0-.146.727,1.751,1.751,0,0,0,1.746,1.746h3.491a1.751,1.751,0,0,0,1.746-1.746,2.026,2.026,0,0,0-.146-.727A1.756,1.756,0,0,1,406.537,455.618Z" transform="translate(-401.3 -426.581)" fill="#f7cb15"/>
      <path id="Path_199" data-name="Path 199" d="M551.524,390.97h0a1.722,1.722,0,0,1,0-2.473L554,386.024a1.722,1.722,0,0,1,2.473,0h0a1.722,1.722,0,0,1,0,2.473L554,390.97A1.774,1.774,0,0,1,551.524,390.97Z" transform="translate(-507.444 -377.586)" fill="#fede3a"/>
      <path id="Path_200" data-name="Path 200" d="M551.541,389.079l2.473-2.473a1.722,1.722,0,0,1,2.473,0,1.8,1.8,0,0,1,.495.96,1.756,1.756,0,0,0-2.968-1.542l-2.473,2.473a1.793,1.793,0,0,0-.495,1.542A1.7,1.7,0,0,1,551.541,389.079Z" transform="translate(-507.461 -377.586)" fill="#fff335"/>
      <path id="Path_201" data-name="Path 201" d="M556.516,389.524,554.042,392a1.722,1.722,0,0,1-2.473,0,1.65,1.65,0,0,1-.349-.524,1.8,1.8,0,0,0,.349,1.979,1.722,1.722,0,0,0,2.473,0l2.473-2.473a1.781,1.781,0,0,0,.349-1.978A2.731,2.731,0,0,1,556.516,389.524Z" transform="translate(-507.49 -380.068)" fill="#f7cb15"/>
      <path id="Path_202" data-name="Path 202" d="M428.924,513.57h0a1.722,1.722,0,0,1,0-2.473l2.473-2.473a1.722,1.722,0,0,1,2.473,0h0a1.722,1.722,0,0,1,0,2.473L431.4,513.57A1.774,1.774,0,0,1,428.924,513.57Z" transform="translate(-420.515 -464.515)" fill="#fede3a"/>
      <path id="Path_203" data-name="Path 203" d="M428.941,511.579l2.473-2.473a1.722,1.722,0,0,1,2.473,0,1.8,1.8,0,0,1,.495.96,1.756,1.756,0,0,0-2.968-1.542L428.941,511a1.793,1.793,0,0,0-.495,1.542A1.91,1.91,0,0,1,428.941,511.579Z" transform="translate(-420.533 -464.444)" fill="#fff335"/>
      <path id="Path_204" data-name="Path 204" d="M433.916,512.024l-2.473,2.473a1.721,1.721,0,0,1-2.473,0h0a1.65,1.65,0,0,1-.349-.524,1.8,1.8,0,0,0,.349,1.978h0a1.722,1.722,0,0,0,2.473,0l2.473-2.473a1.781,1.781,0,0,0,.349-1.978A1.652,1.652,0,0,1,433.916,512.024Z" transform="translate(-420.561 -466.926)" fill="#f7cb15"/>
      <path id="Path_205" data-name="Path 205" d="M551.524,508.524h0a1.722,1.722,0,0,1,2.473,0L556.47,511a1.722,1.722,0,0,1,0,2.473h0a1.721,1.721,0,0,1-2.473,0L551.524,511A1.722,1.722,0,0,1,551.524,508.524Z" transform="translate(-507.444 -464.444)" fill="#fede3a"/>
      <path id="Path_206" data-name="Path 206" d="M551.541,509.106a1.722,1.722,0,0,1,2.473,0l2.473,2.473a1.8,1.8,0,0,1,.495.96,1.736,1.736,0,0,0-.495-1.542l-2.473-2.473a1.722,1.722,0,0,0-2.473,0,1.793,1.793,0,0,0-.495,1.542A1.8,1.8,0,0,1,551.541,509.106Z" transform="translate(-507.461 -464.444)" fill="#fff335"/>
      <path id="Path_207" data-name="Path 207" d="M556.516,514.6a1.722,1.722,0,0,1-2.473,0l-2.473-2.473a1.652,1.652,0,0,1-.349-.524,1.8,1.8,0,0,0,.349,1.978l2.473,2.473a1.722,1.722,0,0,0,2.473,0,1.781,1.781,0,0,0,.349-1.979A2.733,2.733,0,0,1,556.516,514.6Z" transform="translate(-507.49 -466.996)" fill="#f7cb15"/>
      <path id="Path_208" data-name="Path 208" d="M428.924,385.924h0a1.722,1.722,0,0,1,2.473,0l2.473,2.473a1.722,1.722,0,0,1,0,2.473h0a1.722,1.722,0,0,1-2.473,0l-2.473-2.473A1.722,1.722,0,0,1,428.924,385.924Z" transform="translate(-420.515 -377.515)" fill="#fede3a"/>
      <path id="Path_209" data-name="Path 209" d="M428.941,386.506h0a1.722,1.722,0,0,1,2.473,0l2.473,2.473a1.8,1.8,0,0,1,.495.96,1.736,1.736,0,0,0-.495-1.542l-2.473-2.473a1.722,1.722,0,0,0-2.473,0h0a1.793,1.793,0,0,0-.495,1.542A1.909,1.909,0,0,1,428.941,386.506Z" transform="translate(-420.533 -377.515)" fill="#fff335"/>
      <path id="Path_210" data-name="Path 210" d="M433.916,392a1.722,1.722,0,0,1-2.473,0l-2.473-2.473a1.651,1.651,0,0,1-.349-.524,1.8,1.8,0,0,0,.349,1.978l2.473,2.473a1.722,1.722,0,0,0,2.473,0,1.781,1.781,0,0,0,.349-1.979A1.652,1.652,0,0,1,433.916,392Z" transform="translate(-420.561 -380.068)" fill="#f7cb15"/>
    </g>
  </g>
</svg>
