<svg xmlns="http://www.w3.org/2000/svg" width="182" height="182" viewBox="0 0 182 182">
  <g id="Group_59" data-name="Group 59" transform="translate(-1361.313 -1235.313)">
    <circle id="Ellipse_11" data-name="Ellipse 11" cx="91" cy="91" r="91" transform="translate(1361.313 1235.313)" fill="#111212"/>
    <circle id="Ellipse_12" data-name="Ellipse 12" cx="78.992" cy="78.992" r="78.992" transform="translate(1373.32 1247.32)" fill="#222323"/>
    <path id="Path_126" data-name="Path 126" d="M372.383,361.726l-25.535-25.558a41.251,41.251,0,1,0-12.779,12.779l25.558,25.535a9.028,9.028,0,0,0,12.779,0h0A9.021,9.021,0,0,0,372.383,361.726Z" transform="translate(1129.005 1001.386)" fill="#141414"/>
    <path id="Path_127" data-name="Path 127" d="M551.191,546.047,519.3,514.179,532.079,501.4l31.868,31.868a9.028,9.028,0,0,1,0,12.779h0A9,9,0,0,1,551.191,546.047Z" transform="translate(937.44 825.234)" fill="#e5232b"/>
    <path id="Path_128" data-name="Path 128" d="M554.334,575.191,522.466,543.3l-3.166,3.166,31.891,31.868a9.028,9.028,0,0,0,12.779,0h0a8.971,8.971,0,0,0,1.377-1.767A9.051,9.051,0,0,1,554.334,575.191Z" transform="translate(937.44 792.947)" fill="#c21e24"/>
    <path id="Path_129" data-name="Path 129" d="M532.079,501.4,519.3,514.179l9.98,9.98a49.76,49.76,0,0,0,12.779-12.779Z" transform="translate(937.44 825.234)" fill="#c21e24"/>
    <path id="Path_130" data-name="Path 130" d="M312.074,252.9a41.274,41.274,0,1,0,41.274,41.274A41.276,41.276,0,0,0,312.074,252.9Z" transform="translate(1128.927 1016.721)" fill="#f6de25"/>
    <path id="Path_131" data-name="Path 131" d="M312.074,252.9a41.274,41.274,0,1,0,41.274,41.274A41.276,41.276,0,0,0,312.074,252.9Zm0,80.3A39.026,39.026,0,1,1,351.1,294.174,39.024,39.024,0,0,1,312.074,333.2Z" transform="translate(1128.927 1016.721)" fill="#e7ad27"/>
    <path id="Path_132" data-name="Path 132" d="M340.971,290.3a32.682,32.682,0,1,0,32.671,32.694A32.669,32.669,0,0,0,340.971,290.3Zm0,62.634a29.94,29.94,0,1,1,29.94-29.94A29.933,29.933,0,0,1,340.971,352.934Z" transform="translate(1100.031 987.901)" fill="#e7ad27"/>
    <circle id="Ellipse_13" data-name="Ellipse 13" cx="29.963" cy="29.963" r="29.963" transform="translate(1411.038 1280.932)" fill="#2c89d1"/>
    <path id="Path_133" data-name="Path 133" d="M350.14,306.7a30.007,30.007,0,0,1,29.895,27.715c.046-.734.092-1.491.092-2.248a29.963,29.963,0,1,0-59.927,0c0,.757.023,1.514.092,2.248A29.883,29.883,0,0,1,350.14,306.7Z" transform="translate(1090.861 978.732)" fill="#329ced"/>
  </g>
</svg>
