<svg xmlns="http://www.w3.org/2000/svg" width="182" height="182" viewBox="0 0 182 182">
  <g id="Group_57" data-name="Group 57" transform="translate(-745.083 -964.083)">
    <circle id="Ellipse_3" data-name="Ellipse 3" cx="91" cy="91" r="91" transform="translate(745.083 964.083)" fill="#111212"/>
    <circle id="Ellipse_4" data-name="Ellipse 4" cx="78.794" cy="78.794" r="78.794" transform="translate(757.289 976.289)" fill="#222323"/>
    <path id="Path_108" data-name="Path 108" d="M356.831,489.218h-2.517a11.443,11.443,0,0,0,2.472-1.808c.137-.137.275-.252.389-.389.183-.206.389-.412.549-.618.229-.3.458-.6.664-.893a11.615,11.615,0,0,0,1.991-6.522,4.409,4.409,0,0,0-.023-.549.446.446,0,0,0-.023-.183c0-.114-.023-.229-.023-.343,0-.069-.023-.16-.023-.229a1.341,1.341,0,0,0-.046-.3c0-.069-.023-.16-.023-.229v-.046h0a11.689,11.689,0,0,0-23.068,0h0v.046a.78.78,0,0,0-.023.229c-.023.092-.023.206-.046.3,0,.069-.023.16-.023.229,0,.114-.023.229-.023.343a.447.447,0,0,1-.023.183c0,.183-.023.366-.023.549a11.56,11.56,0,0,0,1.991,6.522,9.034,9.034,0,0,0,.664.893l.549.618c.137.137.252.275.389.389a11.245,11.245,0,0,0,2.472,1.808h-2.517a12.62,12.62,0,0,0-10.642,5.813,18.532,18.532,0,0,0-3.776-.389H322.48a4.258,4.258,0,0,0,.435-.252c.229-.137.458-.275.687-.435a4.922,4.922,0,0,0,.435-.3,10.6,10.6,0,0,0,.961-.732c.275-.206.526-.435.778-.664a16.81,16.81,0,0,0,5.492-12.473c0-.275,0-.526-.023-.778a1.115,1.115,0,0,0-.023-.275,4.108,4.108,0,0,0-.046-.5c0-.114-.023-.229-.023-.343a2.8,2.8,0,0,1-.046-.435c-.023-.114-.023-.229-.046-.343v-.046h0a16.88,16.88,0,0,0-33.321,0h0v.046c-.023.114-.023.229-.046.343a2.808,2.808,0,0,0-.046.435,1.734,1.734,0,0,0-.023.343c-.023.16-.023.32-.046.5,0,.092-.023.183-.023.275-.023.252-.023.526-.023.778a16.81,16.81,0,0,0,4.943,11.923,16.4,16.4,0,0,0,1.327,1.19c.32.252.641.5.961.732.137.092.3.206.435.3.229.16.458.3.687.435.137.091.275.16.435.252h-3.639a18.532,18.532,0,0,0-3.776.389,12.65,12.65,0,0,0-10.642-5.813h-2.334a11.445,11.445,0,0,0,2.472-1.808c.137-.137.275-.252.389-.389.183-.206.389-.412.549-.618.229-.3.458-.6.664-.893A11.615,11.615,0,0,0,292,478.965a4.409,4.409,0,0,0-.023-.549.447.447,0,0,0-.023-.183c0-.114-.023-.229-.023-.343,0-.069-.023-.16-.023-.229a1.337,1.337,0,0,0-.046-.3c0-.069-.023-.16-.023-.229v-.046h0a11.689,11.689,0,0,0-23.068,0h0v.046a.778.778,0,0,0-.023.229c-.023.092-.023.206-.046.3,0,.069-.023.16-.023.229,0,.114-.023.229-.023.343a.446.446,0,0,1-.023.183c0,.183-.023.366-.023.549a11.56,11.56,0,0,0,1.991,6.522,9.038,9.038,0,0,0,.664.893l.549.618c.137.137.252.275.389.389a11.244,11.244,0,0,0,2.472,1.808h-2.517A12.653,12.653,0,0,0,259.5,501.851v8.49a2.969,2.969,0,0,0,2.975,2.975h22.084v11.855a4.3,4.3,0,0,0,4.3,4.3h51.355a4.3,4.3,0,0,0,4.3-4.3V513.339h21.993a2.969,2.969,0,0,0,2.975-2.975v-8.49A12.668,12.668,0,0,0,356.831,489.218Z" transform="translate(521.544 583.693)" fill="#141414"/>
    <path id="Path_109" data-name="Path 109" d="M368.9,268.682a3.7,3.7,0,0,0,.229.412,3.222,3.222,0,0,0,2.655,1.419H392.1l-.046.046,6.614,13.983,6.591-14.006-.046-.046h20.322a3.2,3.2,0,0,0,2.266-.938l.023-.023a3.566,3.566,0,0,0,.366-.458,3.707,3.707,0,0,0,.229-.412,3.093,3.093,0,0,0,.252-.778,2.5,2.5,0,0,0,.069-.6V242.2a3.2,3.2,0,0,0-3.2-3.2H371.8a3.2,3.2,0,0,0-3.2,3.2v25.082a4.385,4.385,0,0,0,.3,1.4Z" transform="translate(437.412 756.353)" fill="#141414"/>
    <path id="Path_110" data-name="Path 110" d="M298.439,582.021H262.875a2.969,2.969,0,0,1-2.975-2.975v-8.49A12.653,12.653,0,0,1,272.556,557.9h16.18a12.653,12.653,0,0,1,12.656,12.656v8.49A2.95,2.95,0,0,1,298.439,582.021Z" transform="translate(521.236 510.434)" fill="#c21e24"/>
    <path id="Path_111" data-name="Path 111" d="M307.932,582.021H279.578a2.666,2.666,0,0,1-2.678-2.678V569.32a11.422,11.422,0,0,1,11.42-11.42h10.893a11.422,11.422,0,0,1,11.42,11.42v10.024A2.716,2.716,0,0,1,307.932,582.021Z" transform="translate(508.126 510.434)" fill="#e5232b"/>
    <circle id="Ellipse_5" data-name="Ellipse 5" cx="10.619" cy="10.619" r="10.619" transform="translate(791.274 1048.493)" fill="#00a58c"/>
    <path id="Path_112" data-name="Path 112" d="M331.674,557.9H315.7a9.593,9.593,0,0,0,15.974,0Z" transform="translate(478.206 510.434)" fill="#c21e24"/>
    <circle id="Ellipse_6" data-name="Ellipse 6" cx="11.672" cy="11.672" r="11.672" transform="translate(790.221 1046.387)" fill="#f6de25"/>
    <path id="Path_113" data-name="Path 113" d="M311.194,514.595A11.691,11.691,0,0,1,299.66,504.8a12.708,12.708,0,0,0-.16,1.877,11.671,11.671,0,1,0,23.343,0,10.22,10.22,0,0,0-.16-1.877A11.607,11.607,0,0,1,311.194,514.595Z" transform="translate(490.698 551.382)" fill="#e7ad27"/>
    <path id="Path_114" data-name="Path 114" d="M597.239,582.021H561.675a2.969,2.969,0,0,1-2.975-2.975v-8.49A12.653,12.653,0,0,1,571.356,557.9h16.18a12.653,12.653,0,0,1,12.656,12.656v8.49A2.935,2.935,0,0,1,597.239,582.021Z" transform="translate(290.817 510.434)" fill="#c21e24"/>
    <path id="Path_115" data-name="Path 115" d="M606.832,582.021H578.478a2.666,2.666,0,0,1-2.678-2.678V569.32a11.422,11.422,0,0,1,11.42-11.42h10.893a11.422,11.422,0,0,1,11.42,11.42v10.024A2.716,2.716,0,0,1,606.832,582.021Z" transform="translate(277.631 510.434)" fill="#e5232b"/>
    <circle id="Ellipse_7" data-name="Ellipse 7" cx="10.619" cy="10.619" r="10.619" transform="translate(859.655 1048.493)" fill="#00a58c"/>
    <path id="Path_116" data-name="Path 116" d="M630.474,557.9H614.5a9.593,9.593,0,0,0,15.974,0Z" transform="translate(247.787 510.434)" fill="#c21e24"/>
    <circle id="Ellipse_8" data-name="Ellipse 8" cx="11.672" cy="11.672" r="11.672" transform="translate(858.603 1046.387)" fill="#f6de25"/>
    <path id="Path_117" data-name="Path 117" d="M609.994,514.595A11.691,11.691,0,0,1,598.46,504.8a12.708,12.708,0,0,0-.16,1.877,11.672,11.672,0,1,0,23.343,0,10.218,10.218,0,0,0-.16-1.877A11.59,11.59,0,0,1,609.994,514.595Z" transform="translate(260.28 551.382)" fill="#e7ad27"/>
    <path id="Path_118" data-name="Path 118" d="M424.657,616.431H373.3a4.3,4.3,0,0,1-4.3-4.3V599.885A18.293,18.293,0,0,1,387.285,581.6h23.366a18.294,18.294,0,0,1,18.285,18.285v12.244A4.264,4.264,0,0,1,424.657,616.431Z" transform="translate(437.104 492.158)" fill="#00a58c"/>
    <path id="Path_119" data-name="Path 119" d="M438.432,616.431H397.468a3.878,3.878,0,0,1-3.868-3.868V598.077A16.482,16.482,0,0,1,410.077,581.6H425.8a16.482,16.482,0,0,1,16.477,16.477v14.486A3.843,3.843,0,0,1,438.432,616.431Z" transform="translate(418.134 492.158)" fill="#2dbba5"/>
    <circle id="Ellipse_9" data-name="Ellipse 9" cx="15.356" cy="15.356" r="15.356" transform="translate(820.727 1045.083)" fill="#00a58c"/>
    <path id="Path_120" data-name="Path 120" d="M472.668,581.5H449.6a13.855,13.855,0,0,0,23.068,0Z" transform="translate(374.949 492.235)" fill="#00a58c"/>
    <circle id="Ellipse_10" data-name="Ellipse 10" cx="16.866" cy="16.866" r="16.866" transform="translate(819.217 1042.062)" fill="#f6de25"/>
    <path id="Path_121" data-name="Path 121" d="M443.089,519.043a16.887,16.887,0,0,1-16.66-14.143,17.726,17.726,0,0,0-.229,2.723,16.866,16.866,0,0,0,33.733,0,15.442,15.442,0,0,0-.229-2.723A16.783,16.783,0,0,1,443.089,519.043Z" transform="translate(392.994 551.305)" fill="#e7ad27"/>
    <path id="Path_122" data-name="Path 122" d="M425.539,250.49H371.8a3.2,3.2,0,0,1-3.2-3.2V222.2a3.2,3.2,0,0,1,3.2-3.2h53.758a3.2,3.2,0,0,1,3.2,3.2v25.082A3.2,3.2,0,0,1,425.539,250.49Z" transform="translate(437.412 771.776)" fill="#fff"/>
    <path id="Path_123" data-name="Path 123" d="M425.539,327.1H371.8a3.2,3.2,0,0,1-3.2-3.2v4.28a3.2,3.2,0,0,0,3.2,3.2h53.758a3.2,3.2,0,0,0,3.2-3.2V323.9A3.2,3.2,0,0,1,425.539,327.1Z" transform="translate(437.412 690.882)" fill="#d1d3d4"/>
    <path id="Path_124" data-name="Path 124" d="M484.382,340.066l-6.591,14.006L471.2,340.066l6.591-4.966Z" transform="translate(358.293 682.246)" fill="#d1d3d4"/>
    <path id="Path_125" data-name="Path 125" d="M485.792,310.631l-6,12.724-6-12.724,6-4.531Z" transform="translate(356.288 704.609)" fill="#fff"/>
  </g>
</svg>
