<svg xmlns="http://www.w3.org/2000/svg" width="182" height="182" viewBox="0 0 182 182"><g transform="translate(-1361 -5028)"><circle cx="91" cy="91" r="91" transform="translate(1361 5028)" fill="#111212"/><circle cx="78.722" cy="78.722" r="78.722" transform="translate(1373.278 5040.278)" fill="#222323"/><path d="M374.134,357.506h-8.506v-23.39a5.718,5.718,0,0,0-5.716-5.716h-79.8a5.718,5.718,0,0,0-5.716,5.716v56.406a5.718,5.718,0,0,0,5.716,5.716h30.112v11.524h-3.7a5.73,5.73,0,0,0-5.693,5.145c0,.023-.023.023-.023.046v2.012a1.049,1.049,0,0,0,1.052,1.052h36.309a1.049,1.049,0,0,0,1.052-1.052v-2.012c0-.023-.023-.023-.023-.046a5.713,5.713,0,0,0-5.693-5.145h-3.7V396.238h14.382v16.325a3.425,3.425,0,0,0,3.43,3.43h26.523a3.425,3.425,0,0,0,3.43-3.43V360.936A3.425,3.425,0,0,0,374.134,357.506Z" transform="translate(1126.018 4751.365)" fill="#141414"/><path d="M359.913,376.238h-79.8a5.718,5.718,0,0,1-5.716-5.716V314.116a5.718,5.718,0,0,1,5.716-5.716H359.89a5.718,5.718,0,0,1,5.716,5.716v56.406A5.684,5.684,0,0,1,359.913,376.238Z" transform="translate(1126.018 4766.792)" fill="#ffc733"/><path d="M364.366,380.363H285.073a4.586,4.586,0,0,1-4.573-4.573V320.573A4.586,4.586,0,0,1,285.073,316h79.316a4.586,4.586,0,0,1,4.573,4.573V375.79A4.591,4.591,0,0,1,364.366,380.363Z" transform="translate(1121.313 4760.93)" fill="#fede3a"/><path d="M372.344,384.894H299.773a4.586,4.586,0,0,1-4.573-4.573V335.873a4.586,4.586,0,0,1,4.573-4.573h72.571a4.586,4.586,0,0,1,4.573,4.573v44.448A4.586,4.586,0,0,1,372.344,384.894Z" transform="translate(1109.974 4749.128)" fill="#ffc733"/><path d="M377.124,387.89H305.33a3.425,3.425,0,0,1-3.43-3.43V340.63a3.425,3.425,0,0,1,3.43-3.43h71.817a3.425,3.425,0,0,1,3.43,3.43v43.831A3.459,3.459,0,0,1,377.124,387.89Z" transform="translate(1104.806 4744.577)" fill="#e5232b"/><path d="M377.375,337.2h-72.3a3.171,3.171,0,0,0-3.178,3.178v2.447a3.171,3.171,0,0,1,3.178-3.178h72.3a3.171,3.171,0,0,1,3.178,3.178v-2.447A3.171,3.171,0,0,0,377.375,337.2Z" transform="translate(1104.806 4744.577)" fill="#a72973"/><path d="M422.6,655.5h-26.98a5.718,5.718,0,0,0-5.716,5.716v1.395a1.132,1.132,0,0,0,1.143,1.143h36.126a1.132,1.132,0,0,0,1.143-1.143v-1.395A5.718,5.718,0,0,0,422.6,655.5Z" transform="translate(1036.926 4499.054)" fill="#fede3a"/><path d="M423.854,667.6H394.359a5.276,5.276,0,0,0-4.459,2.424v1.989a1.049,1.049,0,0,0,1.052,1.052H427.26a1.049,1.049,0,0,0,1.052-1.052v-1.989A5.276,5.276,0,0,0,423.854,667.6Z" transform="translate(1036.926 4489.721)" fill="#ffc733"/><rect width="19.572" height="11.524" transform="translate(1436.246 5143.031)" fill="#fff"/><rect width="19.572" height="3.041" transform="translate(1436.246 5143.031)" fill="#d1d3d4"/><circle cx="2.126" cy="2.126" r="2.126" transform="translate(1443.906 5135.462)" fill="#ef5a9d"/><path d="M466.726,581.315a2.112,2.112,0,0,1-2.081-1.715,2.256,2.256,0,0,0-.046.389,2.126,2.126,0,0,0,4.253,0,2.012,2.012,0,0,0-.046-.389A2.112,2.112,0,0,1,466.726,581.315Z" transform="translate(979.306 4557.6)" fill="#a72973"/><path d="M609.552,494.21H583.03a3.425,3.425,0,0,1-3.43-3.43V439.13a3.425,3.425,0,0,1,3.43-3.43h26.523a3.425,3.425,0,0,1,3.43,3.43v51.65A3.425,3.425,0,0,1,609.552,494.21Z" transform="translate(890.6 4668.598)" fill="#d1d3d4"/><path d="M614.058,497.412H587.6a2.1,2.1,0,0,1-2.1-2.1V443.7a2.1,2.1,0,0,1,2.1-2.1h26.454a2.1,2.1,0,0,1,2.1,2.1v51.6A2.07,2.07,0,0,1,614.058,497.412Z" transform="translate(886.049 4664.047)" fill="#fff"/><circle cx="3.292" cy="3.292" r="3.292" transform="translate(1483.598 5153.273)" fill="#a72973"/><circle cx="2.104" cy="2.104" r="2.104" transform="translate(1484.787 5154.463)" fill="#ef5a9d"/><path d="M618.054,491.833H595.486a2.293,2.293,0,0,1-2.286-2.286V451.386a2.293,2.293,0,0,1,2.286-2.286h22.567a2.293,2.293,0,0,1,2.286,2.286v38.161A2.279,2.279,0,0,1,618.054,491.833Z" transform="translate(880.109 4658.262)" fill="#177bc0"/><path d="M622.884,496.881H601.918a1.425,1.425,0,0,1-1.418-1.418V459.818a1.425,1.425,0,0,1,1.418-1.418h20.967a1.425,1.425,0,0,1,1.418,1.418V495.44A1.4,1.4,0,0,1,622.884,496.881Z" transform="translate(874.478 4651.088)" fill="#1caee4"/></g></svg>