<svg xmlns="http://www.w3.org/2000/svg" viewBox="0 0 330.65 75.01"><g id="Vrstva_2" data-name="Vrstva 2"><g id="Vrstva_1-2" data-name="Vrstva 1"><path d="M85.81,74.53l-7.2-30.92H85l4.66,20.88,5-16.84v-4H100l6,20.93,4.8-20.93h6.34L109.9,74.53h-6.14L98.1,54.75,92,74.53Z" style="fill:#fff"/><path d="M121.57,74.53V43.61h22.18v5h-15.7v7.92H142v5H128.05v8h15.7v5Z" style="fill:#fff"/><path d="M148.26,74.53V43.61H163.9q4.66,0,6.94,2.19A8.13,8.13,0,0,1,173.12,52a8.19,8.19,0,0,1-1,4.15,6.8,6.8,0,0,1-2.59,2.57A6.91,6.91,0,0,1,173,60.92a7.1,7.1,0,0,1,1.27,4.58q0,4.47-2.52,6.75t-7.27,2.28Zm6.48-18.1h8a4.54,4.54,0,0,0,3.35-1,4,4,0,0,0,1-2.91,4.11,4.11,0,0,0-1-3.07c-.69-.67-2-1-3.81-1h-7.49Zm0,13.34H163a5.39,5.39,0,0,0,3.6-1,4.6,4.6,0,0,0,1.15-3.56,3.92,3.92,0,0,0-1.13-3.07c-.75-.67-2.1-1-4.06-1h-7.77Z" style="fill:#fff"/><path d="M188.39,75a33.22,33.22,0,0,1-5.55-.44,18.93,18.93,0,0,1-4.44-1.24V67.61A27.63,27.63,0,0,0,183,69a22.81,22.81,0,0,0,4.8.52,14.32,14.32,0,0,0,4.94-.62,2.7,2.7,0,0,0,1.59-2.83,3.41,3.41,0,0,0-.67-2.21,5.73,5.73,0,0,0-2.33-1.46,46.94,46.94,0,0,0-4.68-1.47c-3.23-.89-5.51-2-6.82-3.36a7.64,7.64,0,0,1-2-5.57,7.68,7.68,0,0,1,3.12-6.57q3.12-2.31,9.08-2.31a32.37,32.37,0,0,1,5.18.39,22.3,22.3,0,0,1,3.89.91v5.71a23.09,23.09,0,0,0-8.21-1.49,14,14,0,0,0-4.75.65A2.61,2.61,0,0,0,184.4,52a2.86,2.86,0,0,0,.62,1.92,5.31,5.31,0,0,0,2.14,1.3c1,.38,2.42.81,4.25,1.3a19.44,19.44,0,0,1,5.85,2.4,7.64,7.64,0,0,1,2.86,3.16,9.7,9.7,0,0,1,.79,4,7.86,7.86,0,0,1-3.07,6.48Q194.77,75,188.39,75Z" style="fill:#ffde00"/><path d="M205.42,74.53V43.61h14.5a11.53,11.53,0,0,1,6,1.4,8.72,8.72,0,0,1,3.48,3.79,12.59,12.59,0,0,1,1.15,5.47,11.27,11.27,0,0,1-1.32,5.52,9.2,9.2,0,0,1-3.75,3.72,11.77,11.77,0,0,1-5.73,1.32H211.9v9.7Zm6.48-14.84h6.48a5.56,5.56,0,0,0,4.2-1.46,5.44,5.44,0,0,0,1.42-4,5.75,5.75,0,0,0-1.34-4.1,5.3,5.3,0,0,0-4-1.42H211.9Z" style="fill:#ffde00"/><path d="M234.13,74.53V43.61h6.48V74.53Z" style="fill:#ffde00"/><path d="M246.08,74.53V43.61h6.48V56.72l11.9-13.11h7.44L260.72,56.14l11.76,18.39h-6.91l-8.88-14.26-4.13,4.46v9.8Z" style="fill:#ffde00"/><path d="M277,74.53V43.61h22.18v5h-15.7v7.92h13.92v5H283.47v8h15.7v5Z" style="fill:#ffde00"/><path d="M303.68,74.53V43.61h13q7,0,10.49,3.58t3.52,12q0,8-3.47,11.64t-10.54,3.68Zm6.48-5h5.57a11.19,11.19,0,0,0,4.6-.84,5.48,5.48,0,0,0,2.81-3.07,17.06,17.06,0,0,0,.94-6.41,18.44,18.44,0,0,0-.86-6.38,5.2,5.2,0,0,0-2.69-3,11.8,11.8,0,0,0-4.8-.82h-5.57Z" style="fill:#ffde00"/><path d="M19.61,61.61,32.34,25.15a3.41,3.41,0,0,1,1.13-1.52A3.24,3.24,0,0,1,35.54,23h2.85a3.25,3.25,0,0,1,2,.61,3.89,3.89,0,0,1,1.19,1.59L53.75,61.43,74.94,10.78l7.12,2.82L57.72,75H49L37.59,39.44a24.21,24.21,0,0,1-.86-3.17c-.14.6-.29,1.16-.43,1.69s-.3,1-.47,1.48L24.35,75H15.56L0,42.22H8.1a3.57,3.57,0,0,1,2.11.6,2.84,2.84,0,0,1,1.13,1.6" style="fill:#e30613"/><polygon points="76.49 7.08 74.94 10.78 82.06 13.6 83.52 9.91 83.8 0 76.49 7.08" style="fill:#ffde00"/></g></g></svg>