<svg xmlns="http://www.w3.org/2000/svg" width="25.183" height="25.183" viewBox="0 0 25.183 25.183"><path d="M-3950.567,34.206l-7.159-7.159-7.16,7.159a2.25,2.25,0,0,1-3.182,0l-1.591-1.591a2.25,2.25,0,0,1,0-3.182l7.159-7.159-7.159-7.16a2.25,2.25,0,0,1,0-3.182l1.591-1.591a2.25,2.25,0,0,1,3.182,0l7.16,7.159,7.159-7.159a2.25,2.25,0,0,1,3.182,0l1.591,1.591a2.25,2.25,0,0,1,0,3.182l-7.159,7.16,7.159,7.159a2.25,2.25,0,0,1,0,3.182l-1.591,1.591a2.243,2.243,0,0,1-1.591.659A2.243,2.243,0,0,1-3950.567,34.206Z" transform="translate(3970.318 -9.683)" fill="#f6de25"/></svg>