<svg xmlns="http://www.w3.org/2000/svg" width="42" height="34" viewBox="0 0 42 34"><path d="M37.683,11.854c.027.372.027.744.027,1.116,0,11.342-8.661,24.411-24.491,24.411A24.383,24.383,0,0,1,0,33.529a17.865,17.865,0,0,0,2.079.106A17.275,17.275,0,0,0,12.765,29.97a8.62,8.62,0,0,1-8.048-5.95,10.89,10.89,0,0,0,1.626.133,9.132,9.132,0,0,0,2.265-.292,8.588,8.588,0,0,1-6.9-8.42v-.106A8.691,8.691,0,0,0,5.6,16.423,8.574,8.574,0,0,1,2.931,4.948,24.494,24.494,0,0,0,20.68,13.926a9.655,9.655,0,0,1-.213-1.966,8.622,8.622,0,0,1,14.9-5.87,16.981,16.981,0,0,0,5.463-2.072,8.562,8.562,0,0,1-3.784,4.728A17.3,17.3,0,0,0,42,7.418a18.471,18.471,0,0,1-4.317,4.436Z" transform="translate(0 -3.381)" fill="#fff"/></svg>